<svg width="339" height="314" viewBox="0 0 339 314" fill="none" xmlns="http://www.w3.org/2000/svg">
<g clip-path="url(#clip0_3_5628)">
<path d="M288.957 145.584C222.548 107.234 115.229 107.234 49.2583 145.584C-16.7194 183.94 -16.3739 246.111 50.0356 284.468C116.445 322.817 223.764 322.817 289.749 284.468C355.719 246.118 355.374 183.94 288.957 145.584Z" fill="#F5F5F5"/>
<path d="M180.638 205.019L226.405 178.591L186.453 155.367L140.686 181.795L180.638 205.019Z" fill="#E0E0E0"/>
<path d="M268.632 247.774C253.136 238.826 228.097 238.826 212.702 247.774C197.307 256.722 197.386 271.229 212.882 280.177C228.378 289.125 253.417 289.125 268.812 280.177C284.207 271.229 284.128 256.722 268.632 247.774Z" fill="#E0E0E0"/>
<path d="M39.0237 270.941L45.8324 274.619C47.1854 275.354 48.8192 275.325 50.1507 274.554L146.084 218.899C147.581 218.035 147.545 215.861 146.026 215.04L137.037 210.181L38.9661 267.089C37.4691 267.953 37.5051 270.12 39.0237 270.941Z" fill="#E0E0E0"/>
<path d="M306.936 218.481C302.517 215.933 295.384 215.933 290.994 218.481C286.604 221.03 286.625 225.169 291.044 227.718C295.464 230.266 302.603 230.266 306.986 227.718C311.377 225.169 311.355 221.03 306.936 218.481Z" fill="#E0E0E0"/>
<path d="M309.685 203.802L298.99 204.112L288.295 203.802C287.834 211.023 289.245 218.388 291.188 221.987H291.196C291.541 222.779 292.246 223.528 293.312 224.14C296.464 225.961 301.567 225.961 304.705 224.14C305.792 223.506 306.49 222.736 306.821 221.93C308.75 218.316 310.146 210.994 309.685 203.802Z" fill="white"/>
<path d="M306.533 199.425C310.722 201.844 310.743 205.768 306.583 208.187C302.423 210.605 295.651 210.605 291.462 208.187C287.273 205.768 287.251 201.844 291.411 199.425C295.571 197.006 302.337 197.006 306.533 199.425Z" fill="#EBEBEB"/>
<path d="M304.87 200.383C308.138 202.269 308.16 205.329 304.906 207.222C301.66 209.108 296.378 209.108 293.11 207.222C289.842 205.336 289.821 202.276 293.074 200.383C296.32 198.497 301.603 198.497 304.87 200.383Z" fill="#E0E0E0"/>
<g opacity="0.15">
<path d="M304.87 200.383C308.138 202.269 308.16 205.329 304.906 207.222C301.66 209.108 296.378 209.108 293.11 207.222C289.842 205.336 289.821 202.276 293.074 200.383C296.32 198.497 301.603 198.497 304.87 200.383Z" fill="black"/>
</g>
<path d="M316.573 158.16C292.477 166.051 292.254 182.184 297.687 193.666C299.055 195.991 303.208 197.237 306.814 182.954L300.48 183.767L307.857 180.031L309.772 174.301L303.618 174.754L311.427 171.471C314.313 162.768 316.573 158.16 316.573 158.16Z" fill="#246BEB"/>
<path opacity="0.2" d="M316.573 158.16C292.477 166.051 292.254 182.184 297.687 193.666C299.055 195.991 303.208 197.237 306.814 182.954L300.48 183.767L307.857 180.031L309.772 174.301L303.618 174.754L311.427 171.471C314.313 162.768 316.573 158.16 316.573 158.16Z" fill="black"/>
<path opacity="0.2" d="M316.573 158.16C292.477 166.051 292.254 182.184 297.687 193.666C299.055 195.991 303.208 197.237 306.814 182.954L300.48 183.767L307.857 180.031L309.772 174.301L303.618 174.754L311.427 171.471C314.313 162.768 316.573 158.16 316.573 158.16Z" fill="white"/>
<path d="M309.757 162.192C297.047 171.839 295.903 182.904 299.494 194.451C298.22 184.279 296.853 173.998 309.757 162.192Z" fill="white"/>
<path d="M275.757 174.538C299.516 177.886 302.395 192.867 299.242 204.465C298.35 206.855 294.701 208.712 288.964 196.006L294.996 195.711L287.503 193.45L284.768 188.432L290.569 187.835L282.753 186.071C278.629 178.454 275.757 174.538 275.757 174.538Z" fill="#246BEB"/>
<path opacity="0.2" d="M275.757 174.538C299.516 177.886 302.395 192.867 299.242 204.465C298.35 206.855 294.701 208.712 288.964 196.006L294.996 195.711L287.503 193.45L284.768 188.432L290.569 187.835L282.753 186.071C278.629 178.454 275.757 174.538 275.757 174.538Z" fill="white"/>
<path opacity="0.1" d="M275.757 174.538C299.516 177.886 302.395 192.867 299.242 204.465C298.35 206.855 294.701 208.712 288.964 196.006L294.996 195.711L287.503 193.45L284.768 188.432L290.569 187.835L282.753 186.071C278.629 178.454 275.757 174.538 275.757 174.538Z" fill="black"/>
<path d="M282.775 177.166C296.212 184.041 299.12 194.148 297.695 205.501C297.191 195.819 296.759 186.014 282.775 177.166Z" fill="white"/>
<path d="M323.526 180.153C301.74 180.506 297.464 193.688 299.012 204.501C299.544 206.754 302.632 208.834 309.225 198.029L303.82 197.086L310.823 195.891L313.853 191.672L308.685 190.484L315.925 189.771C320.503 183.364 323.526 180.153 323.526 180.153Z" fill="#246BEB"/>
<path d="M316.911 181.73C304.028 186.424 300.278 195.207 300.293 205.602C301.833 196.934 303.316 188.144 316.911 181.73Z" fill="white"/>
<path opacity="0.2" d="M323.526 180.153C301.74 180.506 297.464 193.688 299.012 204.501C299.544 206.754 302.632 208.834 309.225 198.029L303.82 197.086L310.823 195.891L313.853 191.672L308.685 190.484L315.925 189.771C320.503 183.364 323.526 180.153 323.526 180.153Z" fill="white"/>
<path d="M215.602 177.36L219.129 179.412L219.122 175.33L215.602 177.36Z" fill="white"/>
<path d="M218.978 135.678L184.618 155.518L218.978 135.678Z" fill="#CFCFCF"/>
<path d="M219.122 175.33L219.136 179.419L222.814 177.295L222.677 129.278L180.897 153.409L181.034 201.427L184.711 199.303L184.697 195.221L215.602 177.375L219.122 175.33ZM184.618 155.518L218.978 135.678L219.021 151.249L184.661 171.09L184.618 155.518ZM184.675 175.359L219.035 155.518V155.562L219.079 171.09L184.719 190.93L184.675 175.359Z" fill="white"/>
<path d="M219.079 171.083L219.035 155.562V155.511L184.676 175.359L184.719 190.93L219.079 171.083Z" fill="white"/>
<path d="M219.021 151.249L218.978 135.678L184.618 155.518L184.661 171.097L219.021 151.249Z" fill="white"/>
<path d="M180.89 153.402L144.414 132.201L144.551 180.218L181.026 201.419L180.89 153.402Z" fill="white"/>
<path d="M180.89 153.402L222.67 129.271L186.194 108.069L144.414 132.201L180.89 153.402Z" fill="white"/>
<path opacity="0.3" d="M215.602 177.36L219.129 179.412L219.122 175.33L215.602 177.36Z" fill="black"/>
<path d="M218.978 135.678L184.618 155.518L218.978 135.678Z" fill="#CFCFCF"/>
<path opacity="0.2" d="M219.122 175.33L219.136 179.419L222.814 177.295L222.677 129.278L180.897 153.409L181.034 201.427L184.711 199.303L184.697 195.221L215.602 177.375L219.122 175.33ZM184.618 155.518L218.978 135.678L219.021 151.249L184.661 171.09L184.618 155.518ZM184.675 175.359L219.035 155.518V155.562L219.079 171.09L184.719 190.93L184.675 175.359Z" fill="black"/>
<path opacity="0.1" d="M219.079 171.083L219.035 155.562V155.511L184.676 175.359L184.719 190.93L219.079 171.083Z" fill="black"/>
<path opacity="0.1" d="M219.021 151.249L218.978 135.678L184.618 155.518L184.661 171.097L219.021 151.249Z" fill="black"/>
<path opacity="0.3" d="M207.779 147.938L207.764 145.792L195.86 152.66L195.874 154.813L207.779 147.938Z" fill="black"/>
<path opacity="0.3" d="M207.779 167.498L207.764 165.345L195.86 172.22L195.874 174.373L207.779 167.498Z" fill="black"/>
<path opacity="0.3" d="M180.89 153.402L144.414 132.201L144.551 180.218L181.026 201.419L180.89 153.402Z" fill="black"/>
<path opacity="0.1" d="M180.89 153.402L222.67 129.271L186.194 108.069L144.414 132.201L180.89 153.402Z" fill="black"/>
<path opacity="0.05" d="M175.859 127.183C180.192 124.685 187.187 124.685 191.491 127.183C195.795 129.681 195.774 133.741 191.441 136.239C187.108 138.737 180.112 138.737 175.808 136.239C171.504 133.741 171.526 129.681 175.859 127.183Z" fill="black"/>
<path d="M172.102 111.446L183.985 111.791L195.867 111.446C196.378 119.473 194.809 127.651 192.65 131.639H192.643C192.254 132.517 191.477 133.345 190.289 134.029C186.784 136.052 181.12 136.052 177.637 134.029C176.427 133.331 175.65 132.474 175.283 131.574C173.138 127.564 171.591 119.43 172.102 111.446Z" fill="white"/>
<path d="M175.607 106.579C170.95 109.264 170.929 113.627 175.549 116.312C180.177 118.998 187.698 118.998 192.348 116.312C197.005 113.627 197.026 109.264 192.405 106.579C187.785 103.894 180.264 103.894 175.607 106.579Z" fill="white"/>
<g opacity="0.1">
<path d="M175.607 106.579C170.95 109.264 170.929 113.627 175.549 116.312C180.177 118.998 187.698 118.998 192.348 116.312C197.005 113.627 197.026 109.264 192.405 106.579C187.785 103.894 180.264 103.894 175.607 106.579Z" fill="black"/>
</g>
<path d="M177.449 107.652C173.815 109.747 173.8 113.152 177.406 115.247C181.012 117.342 186.885 117.342 190.513 115.247C194.147 113.152 194.162 109.747 190.556 107.652C186.95 105.557 181.077 105.557 177.449 107.652Z" fill="white"/>
<path d="M184.971 111.784C182.977 113.418 180.307 114.023 178.004 113.368C175.708 112.713 173.836 110.82 173.117 108.429C174.571 107.796 175.715 106.867 176.931 105.78C175.233 105.334 173.261 105.406 171.533 105.967C170.598 104.542 170.36 102.483 171.123 100.82C173.174 99.9202 175.528 99.7546 177.565 100.374C175.758 98.8115 173.462 98.0844 171.051 98.322C170.814 92.4835 172.613 88.3153 172.613 88.3153C177.039 88.5457 181.336 90.4534 182.783 91.8284C183.027 93.5994 182.293 96.5366 182.293 96.5366C184.316 95.4136 184.352 93.4914 184.352 93.4914C187.123 94.1825 188.31 95.5719 188.742 96.623C188.54 98.358 186.935 101.259 186.115 101.943C188.72 101.158 189.771 98.2572 189.771 98.2572C192.341 104.326 191.851 111.194 184.971 111.784Z" fill="white"/>
<path opacity="0.2" d="M184.971 111.784C182.977 113.418 180.307 114.023 178.004 113.368C175.708 112.713 173.836 110.82 173.117 108.429C174.571 107.796 175.715 106.867 176.931 105.78C175.233 105.334 173.261 105.406 171.533 105.967C170.598 104.542 170.36 102.483 171.123 100.82C173.174 99.9202 175.528 99.7546 177.565 100.374C175.758 98.8115 173.462 98.0844 171.051 98.322C170.814 92.4835 172.613 88.3153 172.613 88.3153C177.039 88.5457 181.336 90.4534 182.783 91.8284C183.027 93.5994 182.293 96.5366 182.293 96.5366C184.316 95.4136 184.352 93.4914 184.352 93.4914C187.123 94.1825 188.31 95.5719 188.742 96.623C188.54 98.358 186.935 101.259 186.115 101.943C188.72 101.158 189.771 98.2572 189.771 98.2572C192.341 104.326 191.851 111.194 184.971 111.784Z" fill="black"/>
<path opacity="0.2" d="M184.971 111.784C182.977 113.418 180.307 114.023 178.004 113.368C175.708 112.713 173.836 110.82 173.117 108.429C174.571 107.796 175.715 106.867 176.931 105.78C175.233 105.334 173.261 105.406 171.533 105.967C170.598 104.542 170.36 102.483 171.123 100.82C173.174 99.9202 175.528 99.7546 177.565 100.374C175.758 98.8115 173.462 98.0844 171.051 98.322C170.814 92.4835 172.613 88.3153 172.613 88.3153C177.039 88.5457 181.336 90.4534 182.783 91.8284C183.027 93.5994 182.293 96.5366 182.293 96.5366C184.316 95.4136 184.352 93.4914 184.352 93.4914C187.123 94.1825 188.31 95.5719 188.742 96.623C188.54 98.358 186.935 101.259 186.115 101.943C188.72 101.158 189.771 98.2572 189.771 98.2572C192.341 104.326 191.851 111.194 184.971 111.784Z" fill="black"/>
<g opacity="0.1">
<path d="M185.129 112.439C185.136 112.439 185.143 112.439 185.151 112.439C185.295 112.432 185.395 112.303 185.388 112.166C184.963 106.572 181.768 97.3357 174.139 89.7191C174.038 89.6184 173.88 89.6184 173.779 89.7191C173.678 89.8199 173.678 89.9783 173.779 90.0791C181.307 97.5949 184.467 106.694 184.884 112.202C184.884 112.339 184.992 112.439 185.129 112.439Z" fill="#F5F5F5"/>
</g>
<path d="M183.035 114.779C184.805 116.219 187.274 116.759 189.483 116.176C191.693 115.592 193.579 113.915 194.406 111.784C193.068 111.23 192.046 110.402 190.966 109.444C192.6 109.041 194.464 109.099 196.069 109.596C197.048 108.321 197.408 106.486 196.781 105.003C194.889 104.211 192.672 104.074 190.7 104.643C192.506 103.239 194.73 102.577 197.005 102.771C197.602 97.5516 196.155 93.8369 196.155 93.8369C191.93 94.0961 187.756 95.8382 186.302 97.0765C185.964 98.6531 186.475 101.259 186.475 101.259C184.64 100.28 184.726 98.5739 184.726 98.5739C182.085 99.2146 180.89 100.453 180.422 101.389C180.508 102.922 181.833 105.485 182.552 106.082C180.163 105.399 179.357 102.843 179.357 102.843C176.607 108.213 176.651 114.261 183.035 114.779Z" fill="white"/>
<path opacity="0.3" d="M183.035 114.779C184.805 116.219 187.274 116.759 189.483 116.176C191.693 115.592 193.579 113.915 194.406 111.784C193.068 111.23 192.046 110.402 190.966 109.444C192.6 109.041 194.464 109.099 196.069 109.596C197.048 108.321 197.408 106.486 196.781 105.003C194.889 104.211 192.672 104.074 190.7 104.643C192.506 103.239 194.73 102.577 197.005 102.771C197.602 97.5516 196.155 93.8369 196.155 93.8369C191.93 94.0961 187.756 95.8382 186.302 97.0765C185.964 98.6531 186.475 101.259 186.475 101.259C184.64 100.28 184.726 98.5739 184.726 98.5739C182.085 99.2146 180.89 100.453 180.422 101.389C180.508 102.922 181.833 105.485 182.552 106.082C180.163 105.399 179.357 102.843 179.357 102.843C176.607 108.213 176.651 114.261 183.035 114.779Z" fill="black"/>
<g opacity="0.1">
<path d="M182.862 115.391C182.984 115.391 183.092 115.297 183.114 115.175C183.841 110.301 187.382 102.217 194.96 95.4639C195.068 95.3704 195.076 95.2048 194.982 95.104C194.888 94.996 194.73 94.9888 194.622 95.0824C186.935 101.929 183.351 110.15 182.61 115.103C182.588 115.24 182.682 115.376 182.826 115.391C182.84 115.384 182.855 115.391 182.862 115.391Z" fill="white"/>
</g>
<path d="M145.285 6.80772C144.637 4.50403 139.973 0.13421 135.331 0.227798C135.165 0.227798 134.33 0.314186 134.028 0.479764L43.8892 51.7801C42.3561 52.6512 41.1758 53.9615 40.4273 55.4949C39.8587 56.6539 39.5348 57.9425 39.5348 59.2743V254.296C39.5348 259.264 45.2638 264.008 50.6402 261.726C50.6546 261.719 50.6618 261.704 50.6762 261.697C50.7914 261.654 50.9065 261.625 51.0217 261.56L141.168 210.181C143.86 208.647 145.522 205.789 145.522 202.687V7.7508C145.515 7.39805 145.421 7.08849 145.285 6.80772Z" fill="#246BEB"/>
<path opacity="0.3" d="M145.285 6.80772C144.637 4.50403 139.973 0.13421 135.331 0.227798C135.165 0.227798 134.33 0.314186 134.028 0.479764L43.8892 51.7801C42.3561 52.6512 41.1758 53.9615 40.4273 55.4949C39.8587 56.6539 39.5348 57.9425 39.5348 59.2743V254.296C39.5348 259.264 45.2638 264.008 50.6402 261.726C50.6546 261.719 50.6618 261.704 50.6762 261.697C50.7914 261.654 50.9065 261.625 51.0217 261.56L141.168 210.181C143.86 208.647 145.522 205.789 145.522 202.687V7.7508C145.515 7.39805 145.421 7.08849 145.285 6.80772Z" fill="black"/>
<path d="M52.1085 79.8924C52.1085 78.3446 52.9434 76.912 54.2893 76.1417L137.987 28.5128C139.426 27.6921 141.211 28.736 141.211 30.3846V187.648C141.211 189.195 140.376 190.628 139.03 191.398L55.3257 239.099C53.8863 239.92 52.1013 238.883 52.1013 237.227V79.8924H52.1085Z" fill="#455A64"/>
<path opacity="0.3" d="M39.5348 59.2744V254.296C39.5348 259.264 45.2638 264.008 50.6402 261.726C50.6546 261.719 50.6618 261.704 50.6762 261.697C49.3159 262.194 47.7973 261.208 47.7973 259.681V64.6665C47.7973 62.9387 48.3299 61.2973 49.2511 59.9007L40.4273 55.4877C39.8587 56.6539 39.5348 57.9425 39.5348 59.2744Z" fill="black"/>
<path opacity="0.1" d="M135.331 0.227798C135.165 0.227798 134.33 0.314186 134.028 0.479764L43.8891 51.7801C42.3561 52.6512 41.1758 53.9614 40.4272 55.4948L49.2511 59.9079C49.9853 58.7992 50.9641 57.8561 52.1516 57.1722L142.291 5.87185C143.428 5.22393 144.766 5.74946 145.285 6.80772L145.292 6.80052C144.637 4.50403 139.973 0.13421 135.331 0.227798Z" fill="white"/>
<path d="M107.765 38.0805C108.399 37.7133 108.924 38.0013 108.924 38.7284C108.924 39.4555 108.406 40.3626 107.772 40.7225L90.0886 50.938C89.4553 51.3051 88.9443 50.9955 88.9443 50.2684C88.9443 49.5413 89.4481 48.6631 90.0814 48.2959L107.765 38.0805Z" fill="#263238"/>
<path d="M85.5399 50.9164C86.1733 50.5492 86.6843 50.8444 86.6843 51.5715C86.6843 52.2986 86.1805 53.1913 85.5471 53.5584C84.9138 53.9256 84.3884 53.6232 84.3884 52.8961C84.3812 52.169 84.9066 51.2835 85.5399 50.9164Z" fill="#263238"/>
<path d="M96.8541 36.5974C98.1208 35.8703 99.1428 36.4462 99.1428 37.9004C99.15 39.3547 98.1352 41.14 96.8685 41.8743C95.6018 42.6014 94.5582 42.0039 94.551 40.5569C94.551 39.0955 95.5946 37.3245 96.8541 36.5974Z" fill="#263238"/>
<path d="M96.8613 220.194C99.4379 218.704 101.518 219.892 101.525 222.851C101.532 225.81 99.4667 229.452 96.8901 230.943C94.3134 232.433 92.1758 231.216 92.1686 228.25C92.1686 225.291 94.2846 221.685 96.8613 220.194Z" fill="#263238"/>
<path d="M158.492 39.0452L158.506 39.038L153.634 36.4607V36.4823C152.986 36 152.086 35.8704 151.287 36.3239L67.597 83.9456C66.2511 84.7087 65.4163 86.1413 65.4163 87.6963V94.9097V245.031C65.4163 245.989 66.0136 246.723 66.7909 247.026L66.7765 247.033L71.6851 249.668C71.6923 249.675 71.6995 249.675 71.7067 249.682C71.7283 249.696 71.7571 249.704 71.7859 249.718C72.3976 250.035 73.1606 250.078 73.8443 249.689L157.542 201.981C158.888 201.218 159.722 199.778 159.722 198.23V46.4674V40.9745C159.715 40.0818 159.197 39.3835 158.492 39.0452Z" fill="#246BEB"/>
<path opacity="0.3" d="M159.715 46.4674V40.9745C159.715 40.0818 159.19 39.3835 158.485 39.0452L158.499 39.038L153.626 36.4607V36.4823C152.979 36 152.079 35.8704 151.28 36.3239L67.597 83.9456C66.2511 84.7087 65.4163 86.1413 65.4163 87.6963V94.9097L70.6199 97.9189L159.715 46.4674Z" fill="white"/>
<path opacity="0.5" d="M158.492 39.0452L158.506 39.038L153.634 36.4607V36.4823C152.986 36 152.086 35.8704 151.287 36.3239L67.597 83.9456C66.2511 84.7087 65.4163 86.1413 65.4163 87.6963V245.031C65.4163 245.989 66.0136 246.723 66.7909 247.026L66.7765 247.033L71.6851 249.668C71.6923 249.675 71.6995 249.675 71.7067 249.682C71.7283 249.696 71.7571 249.704 71.7859 249.718C72.3976 250.035 73.1606 250.078 73.8443 249.689L157.542 201.981C158.888 201.218 159.722 199.778 159.722 198.23V40.9745C159.715 40.0818 159.197 39.3835 158.492 39.0452Z" fill="white"/>
<path opacity="0.3" d="M65.4163 87.6962V245.031C65.4163 245.989 66.0136 246.723 66.7909 247.025L66.7765 247.033L71.6851 249.667C71.0661 249.3 70.6199 248.631 70.6199 247.81V90.475C70.6199 89.8847 70.7423 89.316 70.9654 88.7905L65.8481 85.8317C65.5746 86.4076 65.4163 87.0411 65.4163 87.6962Z" fill="#246BEB"/>
<path opacity="0.4" d="M153.634 36.4534V36.475C152.986 35.9926 152.086 35.8631 151.287 36.3166L67.597 83.9455C66.8197 84.3846 66.2223 85.0541 65.8481 85.8388L70.9654 88.7976C71.3324 87.9409 71.9658 87.2066 72.8007 86.7315L156.498 39.1026C157.16 38.7283 157.894 38.7571 158.492 39.045L158.506 39.0378L153.634 36.4534Z" fill="white"/>
<path opacity="0.5" d="M159.715 46.4673L70.6199 97.9188V121.978L159.715 70.5265V46.4673Z" fill="white"/>
<path opacity="0.3" d="M65.4163 118.962L70.6199 121.978V97.9187L65.4163 94.9095V118.962Z" fill="white"/>
<path d="M123.419 101.849C125.478 100.662 127.148 101.619 127.155 103.988L127.176 111.007C127.183 113.368 125.521 116.255 123.462 117.443L87.1377 138.421L82.5458 146.368L82.5314 141.077L79.5806 142.783C77.5149 143.971 75.8452 143.021 75.838 140.652L75.8164 133.633C75.8092 131.272 77.4718 128.378 79.5374 127.19L123.419 101.849Z" fill="#246BEB"/>
<g opacity="0.3">
<path d="M123.419 101.849C125.478 100.662 127.148 101.619 127.155 103.988L127.176 111.007C127.183 113.368 125.521 116.255 123.462 117.443L87.1377 138.421L82.5458 146.368L82.5314 141.077L79.5806 142.783C77.5149 143.971 75.8452 143.021 75.838 140.652L75.8164 133.633C75.8092 131.272 77.4718 128.378 79.5374 127.19L123.419 101.849Z" fill="white"/>
</g>
<path d="M82.6178 131.365L82.625 134.987L81.7326 135.505L81.7254 134.094L80.5162 134.792V136.203L79.631 136.722L79.6166 133.1L80.509 132.582L80.5162 133.943L81.7254 133.244V131.884L82.6178 131.365Z" fill="white"/>
<path d="M85.6983 131.812C85.6983 131.891 85.6911 131.985 85.6839 132.064L83.9134 133.086C83.9853 133.331 84.1941 133.374 84.5107 133.194C84.7482 133.057 84.9066 132.885 85.0793 132.625L85.5256 132.899C85.2952 133.338 84.9498 133.691 84.4891 133.957C83.6183 134.461 83.0569 134.166 83.0569 133.331C83.0569 132.489 83.6255 131.56 84.3884 131.114C85.1081 130.696 85.6983 130.89 85.6983 131.812ZM83.899 132.575L84.8994 131.999C84.8562 131.726 84.6619 131.654 84.4028 131.805C84.1365 131.963 83.9493 132.251 83.899 132.575Z" fill="white"/>
<path d="M88.6132 128.716L87.5696 132.244C87.3177 133.115 86.9579 133.532 86.4756 133.813C86.2237 133.957 85.9358 134.029 85.7703 133.964L86.0654 133.101C86.1661 133.144 86.3101 133.122 86.4468 133.05C86.6124 132.957 86.7059 132.827 86.7779 132.625L85.7271 130.386L86.6052 129.883L87.2026 131.25L87.7999 129.184L88.6132 128.716Z" fill="white"/>
<path d="M89.2465 130.134C89.5488 129.962 89.7575 130.07 89.7575 130.372C89.7575 130.667 89.556 131.034 89.2537 131.207C88.9515 131.38 88.7427 131.258 88.7355 130.962C88.7355 130.653 88.9443 130.307 89.2465 130.134Z" fill="white"/>
<path d="M89.5776 129.645L88.9011 130.034L88.7283 127.838L89.7432 127.248L89.5776 129.645Z" fill="white"/>
<path d="M92.3486 125.527V126.816C92.5357 126.506 92.7948 126.254 93.0827 126.089C93.6513 125.757 94.0903 125.88 94.0903 126.751L94.0975 128.356L93.2411 128.846L93.2339 127.399C93.2339 126.996 93.0755 126.917 92.8308 127.06C92.5573 127.219 92.3486 127.536 92.3486 128.004L92.3558 129.357L91.4993 129.847L91.4849 126.009L92.3486 125.527Z" fill="white"/>
<path d="M95.8897 124.476C96.6958 124.008 97.2644 124.282 97.2716 125.124C97.2716 125.966 96.703 126.902 95.8969 127.37C95.098 127.831 94.5222 127.557 94.515 126.715C94.515 125.873 95.0908 124.937 95.8897 124.476ZM95.8897 126.585C96.1848 126.42 96.4007 126.045 96.4007 125.621C96.4007 125.196 96.1776 125.088 95.8825 125.254C95.5946 125.419 95.3715 125.786 95.3715 126.211C95.3787 126.643 95.6018 126.751 95.8897 126.585Z" fill="white"/>
<path d="M101.626 121.2L100.769 124.505L99.9418 124.987L99.4811 123.727L99.0061 125.527L98.1856 126.002L97.3076 123.699L98.1137 123.231L98.6175 124.642L99.1285 122.647L99.8554 122.223L100.366 123.648L100.877 121.632L101.626 121.2Z" fill="white"/>
<path d="M104.239 119.653C105.03 119.199 105.484 119.336 105.484 120.229L105.491 121.791L104.692 122.252V121.884C104.57 122.223 104.332 122.503 103.972 122.705C103.389 123.043 103.065 122.856 103.065 122.367C103.065 121.856 103.389 121.344 104.145 120.905L104.627 120.625C104.613 120.344 104.447 120.279 104.109 120.481C103.879 120.61 103.612 120.862 103.447 121.107L103.159 120.603C103.447 120.229 103.857 119.869 104.239 119.653ZM104.634 121.373V121.128L104.267 121.344C103.994 121.503 103.893 121.676 103.893 121.848C103.893 122.014 104.015 122.057 104.217 121.942C104.404 121.834 104.57 121.64 104.634 121.373Z" fill="white"/>
<path d="M107.657 117.68V118.566C107.578 118.602 107.528 118.623 107.463 118.659C107.117 118.861 106.88 119.199 106.88 119.689L106.887 120.977L106.031 121.467L106.023 118.659L106.837 118.191V118.53C107.017 118.177 107.297 117.889 107.657 117.68Z" fill="white"/>
<path d="M110.479 117.5C110.479 117.579 110.471 117.673 110.464 117.752L108.694 118.774C108.766 119.019 108.974 119.062 109.291 118.882C109.529 118.746 109.687 118.58 109.852 118.314L110.306 118.587C110.068 119.026 109.73 119.379 109.269 119.645C108.399 120.149 107.837 119.854 107.837 119.019C107.837 118.177 108.406 117.248 109.169 116.802C109.888 116.384 110.479 116.579 110.479 117.5ZM108.679 118.27L109.68 117.695C109.636 117.421 109.449 117.349 109.183 117.5C108.917 117.651 108.73 117.939 108.679 118.27Z" fill="white"/>
<path d="M116.128 112.785C116.935 112.317 117.503 112.59 117.51 113.433C117.51 114.275 116.942 115.211 116.136 115.679C115.337 116.14 114.761 115.866 114.754 115.024C114.754 114.181 115.33 113.246 116.128 112.785ZM116.128 114.901C116.424 114.736 116.639 114.361 116.639 113.937C116.639 113.512 116.416 113.404 116.121 113.57C115.833 113.735 115.61 114.102 115.61 114.527C115.617 114.952 115.841 115.067 116.128 114.901Z" fill="white"/>
<path d="M114.747 113.627L113.703 117.147C113.444 118.018 113.084 118.443 112.609 118.717C112.35 118.868 112.062 118.933 111.904 118.868L112.192 118.011C112.292 118.054 112.436 118.033 112.573 117.961C112.739 117.867 112.839 117.738 112.911 117.529L111.86 115.297L112.739 114.793L113.343 116.161L113.94 114.102L114.747 113.627Z" fill="white"/>
<path d="M120.461 110.33L120.468 113.138L119.655 113.606V113.303C119.475 113.642 119.216 113.908 118.935 114.066C118.338 114.412 117.906 114.268 117.899 113.375L117.892 111.813L118.748 111.323L118.756 112.727C118.756 113.159 118.907 113.246 119.159 113.102C119.41 112.958 119.619 112.641 119.619 112.173L119.612 110.819L120.461 110.33Z" fill="white"/>
<path d="M122.246 111.079C122.541 110.906 122.757 111.014 122.757 111.316C122.757 111.611 122.548 111.979 122.253 112.151C121.951 112.324 121.742 112.202 121.742 111.907C121.735 111.597 121.944 111.251 122.246 111.079Z" fill="white"/>
<path d="M122.181 108.444C122.88 108.041 123.369 108.098 123.376 108.725C123.376 109.538 122.642 110.078 122.642 110.553L121.843 111.014C121.843 110.344 122.484 109.797 122.484 109.408C122.484 109.207 122.318 109.178 122.088 109.308C121.843 109.452 121.642 109.711 121.526 110.006L120.857 109.977C121.087 109.38 121.519 108.825 122.181 108.444Z" fill="white"/>
<path d="M150.316 108.667C152.374 107.479 154.051 108.429 154.058 110.798L154.08 117.81C154.087 120.178 152.417 123.065 150.359 124.253L147.401 125.959L147.415 131.25L142.802 128.615L106.477 149.594C104.411 150.781 102.741 149.831 102.734 147.463L102.713 140.451C102.705 138.082 104.368 135.195 106.434 134.008L150.316 108.667Z" fill="#246BEB"/>
<g opacity="0.2">
<path d="M150.316 108.667C152.374 107.479 154.051 108.429 154.058 110.798L154.08 117.81C154.087 120.178 152.417 123.065 150.359 124.253L147.401 125.959L147.415 131.25L142.802 128.615L106.477 149.594C104.411 150.781 102.741 149.831 102.734 147.463L102.713 140.451C102.705 138.082 104.368 135.195 106.434 134.008L150.316 108.667Z" fill="white"/>
</g>
<path d="M109.449 137.744L109.457 141.365L108.722 141.79L107.326 140.667L107.333 142.596L106.462 143.1L106.455 139.472L107.182 139.054L108.578 140.177L108.571 138.248L109.449 137.744Z" fill="white"/>
<path d="M112.53 138.197C112.53 138.269 112.523 138.363 112.523 138.442L110.745 139.465C110.817 139.702 111.026 139.745 111.342 139.565C111.58 139.429 111.738 139.263 111.904 138.997L112.357 139.277C112.12 139.709 111.781 140.062 111.321 140.328C110.45 140.832 109.888 140.544 109.888 139.702C109.888 138.86 110.457 137.931 111.22 137.485C111.947 137.074 112.53 137.269 112.53 138.197ZM110.73 138.961L111.731 138.385C111.688 138.111 111.501 138.039 111.234 138.19C110.968 138.341 110.781 138.629 110.73 138.961Z" fill="white"/>
<path d="M118.093 134.987C118.093 135.059 118.086 135.152 118.086 135.231L116.308 136.254C116.38 136.491 116.589 136.534 116.906 136.355C117.143 136.218 117.302 136.052 117.467 135.786L117.921 136.067C117.683 136.498 117.345 136.851 116.884 137.118C116.013 137.622 115.452 137.334 115.452 136.491C115.452 135.649 116.02 134.72 116.783 134.274C117.51 133.864 118.093 134.058 118.093 134.987ZM116.294 135.743L117.294 135.167C117.244 134.893 117.057 134.821 116.791 134.979C116.531 135.131 116.344 135.419 116.294 135.743Z" fill="white"/>
<path d="M115.445 135.102L114.451 138.485L113.566 138.997L112.559 136.772L113.437 136.268L114.027 137.636L114.631 135.577L115.445 135.102Z" fill="white"/>
<path d="M120.116 132.359V133.244C120.044 133.28 119.986 133.309 119.921 133.345C119.576 133.547 119.338 133.885 119.338 134.375L119.346 135.663L118.489 136.153L118.482 133.352L119.295 132.885V133.223C119.475 132.863 119.756 132.561 120.116 132.359Z" fill="white"/>
<path d="M123.326 130.509C123.988 130.127 124.52 130.372 124.52 131.265C124.52 132.157 123.995 133.021 123.333 133.403C123.016 133.583 122.779 133.619 122.613 133.496V133.777L121.8 134.245L121.786 130.408L122.642 129.911L122.649 131.193C122.808 130.898 123.038 130.667 123.326 130.509ZM123.153 132.726C123.441 132.561 123.664 132.193 123.657 131.762C123.657 131.337 123.434 131.229 123.146 131.394C122.858 131.56 122.635 131.927 122.635 132.352C122.635 132.777 122.865 132.892 123.153 132.726Z" fill="white"/>
<path d="M127.414 129.602C127.414 129.674 127.407 129.775 127.399 129.854L125.622 130.876C125.694 131.114 125.902 131.157 126.219 130.977C126.457 130.84 126.615 130.667 126.78 130.408L127.234 130.689C126.996 131.121 126.658 131.474 126.197 131.74C125.327 132.244 124.765 131.956 124.765 131.114C124.765 130.271 125.334 129.343 126.104 128.896C126.824 128.486 127.407 128.673 127.414 129.602ZM125.614 130.365L126.615 129.789C126.565 129.515 126.377 129.443 126.118 129.595C125.845 129.753 125.658 130.041 125.614 130.365Z" fill="white"/>
<path d="M128.752 126.787V127.514L129.307 127.19V127.924L128.752 128.248V129.177C128.752 129.386 128.86 129.436 129.004 129.35C129.098 129.292 129.199 129.213 129.271 129.112L129.487 129.681C129.335 129.875 129.12 130.055 128.889 130.185C128.263 130.545 127.903 130.401 127.896 129.688V128.745L127.543 128.947V128.212L127.896 128.011V127.284L128.752 126.787Z" fill="white"/>
<path d="M130.717 125.657V126.384L131.272 126.06V126.794L130.717 127.118V128.047C130.717 128.256 130.818 128.306 130.969 128.22C131.063 128.162 131.164 128.083 131.236 127.982L131.451 128.551C131.3 128.745 131.084 128.925 130.854 129.055C130.228 129.415 129.868 129.271 129.861 128.558V127.615L129.508 127.816V127.082L129.861 126.881V126.153L130.717 125.657Z" fill="white"/>
<path d="M134.201 125.685C134.201 125.757 134.194 125.858 134.186 125.937L132.416 126.96C132.488 127.197 132.697 127.24 133.013 127.06C133.251 126.924 133.409 126.751 133.575 126.492L134.028 126.773C133.791 127.204 133.452 127.557 132.992 127.824C132.121 128.328 131.559 128.04 131.552 127.204C131.552 126.362 132.121 125.426 132.891 124.987C133.611 124.562 134.194 124.757 134.201 125.685ZM132.402 126.449L133.402 125.873C133.359 125.599 133.164 125.527 132.905 125.678C132.632 125.837 132.445 126.117 132.402 126.449Z" fill="white"/>
<path d="M136.223 123.058V123.943C136.144 123.979 136.087 124.008 136.029 124.044C135.683 124.246 135.446 124.577 135.446 125.074L135.453 126.362L134.597 126.852L134.589 124.051L135.403 123.583V123.922C135.583 123.562 135.863 123.267 136.223 123.058Z" fill="white"/>
<path d="M82.4523 110.517C86.1013 108.408 89.0522 103.297 89.0378 99.0995C89.0234 94.9097 86.0581 93.2107 82.4091 95.32C78.76 97.4293 75.8091 102.548 75.8235 106.738C75.8307 110.935 78.796 112.627 82.4523 110.517Z" fill="white"/>
<path d="M108.399 84.4135L92.4853 93.4195L92.4925 96.2703L108.406 87.2643L108.399 84.4135Z" fill="white"/>
<path d="M92.4997 98.7468L92.5069 101.598L114.379 89.0641V86.2133L92.4997 98.7468Z" fill="white"/>
<path d="M136.367 66.0127C136.475 65.9479 136.569 65.9551 136.648 66.0199C136.691 66.0559 136.734 66.1063 136.77 66.1567C137.044 66.6174 137.296 67.1069 137.468 67.6685C137.49 67.7404 137.512 67.8196 137.519 67.906C137.54 68.0644 137.483 68.2372 137.346 68.3956C137.245 68.5107 137.137 68.6259 137.029 68.7267C136.885 68.8635 136.734 68.9931 136.59 69.1299C136.346 69.353 136.245 69.5834 136.295 69.8498C136.353 70.1809 136.468 70.4617 136.598 70.728C136.965 71.4839 137.432 72.1175 138.03 72.571C138.131 72.6502 138.246 72.715 138.361 72.7726C138.462 72.823 138.555 72.8158 138.649 72.7654C138.75 72.7078 138.85 72.5926 138.951 72.4126C139.088 72.1823 139.217 71.9591 139.361 71.7287C139.419 71.6279 139.491 71.5343 139.563 71.448C139.613 71.3832 139.671 71.3328 139.721 71.304C139.786 71.268 139.851 71.2536 139.908 71.2824C140.002 71.3184 140.088 71.3688 140.175 71.4264C140.549 71.6783 140.873 72.0023 141.175 72.3622C141.211 72.4054 141.247 72.4558 141.276 72.5134C141.355 72.6718 141.319 72.8734 141.189 73.1109C141.081 73.3125 140.945 73.4853 140.794 73.6437C140.376 74.09 139.937 74.4572 139.592 74.6587C138.814 75.1051 138.246 75.1627 137.728 75.0043C137.274 74.8603 136.907 74.5867 136.569 74.2556C135.849 73.5501 135.252 72.6934 134.841 71.6207C134.647 71.124 134.518 70.5769 134.532 69.9146C134.546 69.1083 134.813 68.2732 135.273 67.4237C135.46 67.0709 135.662 66.7254 135.907 66.4302C136.022 66.2934 136.144 66.1711 136.266 66.0631C136.31 66.0487 136.338 66.0271 136.367 66.0127Z" fill="white"/>
<path d="M152.108 58.5401C152.655 58.2233 153.101 58.4825 153.108 59.1088L153.115 60.7502L155.303 58.1082L155.318 63.637L153.123 63.529L153.13 65.1704C153.13 65.8039 152.691 66.5742 152.137 66.891L146.069 70.3969C145.522 70.7137 145.076 70.4545 145.069 69.8282L145.054 63.7666C145.054 63.1331 145.493 62.3628 146.048 62.046L152.108 58.5401Z" fill="white"/>
<path opacity="0.5" d="M70.6199 223.081V247.81C70.6199 248.631 71.0661 249.308 71.6851 249.667C71.6923 249.675 71.6995 249.675 71.7067 249.682C71.7283 249.696 71.757 249.703 71.7858 249.718C72.3976 250.035 73.1605 250.078 73.8443 249.689L157.542 201.981C158.888 201.218 159.722 199.778 159.722 198.23V175.222L70.6199 223.081Z" fill="white"/>
<path opacity="0.5" d="M71.6851 249.675C71.0661 249.307 70.6199 248.638 70.6199 247.817V223.089L65.4163 220.288V245.031C65.4163 245.989 66.0136 246.723 66.7909 247.025L66.7765 247.033L71.6851 249.675Z" fill="white"/>
<path d="M137.49 193.241C140.549 191.478 143.039 192.889 143.046 196.409C143.054 199.922 140.585 204.205 137.526 205.969L80.9409 238.646C77.882 240.409 75.3917 238.991 75.3845 235.478C75.3773 231.958 77.846 227.682 80.9049 225.918L137.49 193.241Z" fill="white"/>
<path d="M149.97 186.028C150.834 185.531 151.575 185.819 151.712 186.733C151.726 186.841 151.726 186.949 151.726 187.065C151.726 187.741 151.734 188.411 151.734 189.087C151.726 189.75 151.741 190.412 151.726 191.082C151.719 192.082 151.093 193.27 150.258 193.896C150.172 193.961 150.078 194.019 149.992 194.069C149.049 194.616 148.25 194.213 148.243 193.105C148.228 191.751 148.221 190.383 148.228 189.015C148.228 187.972 148.948 186.69 149.848 186.1C149.898 186.071 149.934 186.049 149.97 186.028Z" fill="#246BEB"/>
<path d="M153.979 189.757C154.073 189.699 154.087 189.735 154.08 189.829C154.051 190.808 153.778 191.823 153.267 192.874C152.604 194.235 151.734 195.329 150.676 196.164C150.604 196.222 150.589 196.258 150.589 196.33C150.596 196.985 150.596 197.647 150.604 198.302C150.604 198.396 150.589 198.439 150.496 198.489C150.337 198.576 150.172 198.669 150.013 198.763C149.855 198.857 149.697 198.95 149.538 199.044C149.452 199.094 149.43 199.073 149.43 198.979C149.43 198.655 149.43 198.324 149.43 198C149.43 197.669 149.43 197.338 149.43 197.006C149.43 196.927 149.409 196.92 149.344 196.942C147.653 197.503 146.523 197.028 146.033 195.379C145.961 195.127 145.94 194.832 145.918 194.537C145.918 194.458 145.925 194.415 146.012 194.372C146.148 194.3 146.285 194.22 146.422 194.141C146.559 194.062 146.695 193.983 146.832 193.904C146.89 193.868 146.919 193.868 146.919 193.94C146.962 195.595 148.02 196.2 149.286 195.811C149.524 195.739 149.769 195.631 150.006 195.487C151.107 194.847 152.173 193.572 152.72 192.154C152.957 191.542 153.079 190.952 153.094 190.398C153.094 190.311 153.108 190.275 153.187 190.232C153.317 190.16 153.454 190.081 153.583 190.009C153.713 189.915 153.842 189.836 153.979 189.757Z" fill="#246BEB"/>
<path d="M218.085 261.827C219.561 263.374 221.792 264.029 223.93 263.979C226.067 263.921 228.133 263.23 230.112 262.417C232.091 261.603 234.574 259.328 236.712 259.372C238.684 259.408 241.016 259.156 242.966 258.947C243.154 254.627 242.074 250.474 242.074 250.474L232.091 250.207C229.4 253.9 224.153 256.974 220.187 258.126C218.913 258.493 217.97 259.53 217.726 260.754C217.733 260.775 217.726 260.797 217.733 260.819C217.877 261.445 218.085 261.827 218.085 261.827Z" fill="#455A64"/>
<path d="M236.712 259.364C234.574 259.321 232.091 261.596 230.112 262.41C228.133 263.223 226.067 263.914 223.93 263.972C221.792 264.029 219.561 263.367 218.085 261.819C218.085 261.819 217.884 261.445 217.74 260.804C217.733 260.783 217.74 260.761 217.733 260.739C217.646 261.164 217.639 261.618 217.74 262.071C217.884 262.712 218.085 263.086 218.085 263.086C219.561 264.634 221.792 265.289 223.93 265.239C226.067 265.181 228.133 264.49 230.112 263.677C232.091 262.863 234.574 260.588 236.712 260.631C238.907 260.675 240.807 260.495 242.866 260.279C242.916 259.832 242.945 259.386 242.966 258.94C241.023 259.148 238.691 259.408 236.712 259.364Z" fill="#37474F"/>
<path d="M264.897 262.762C264.889 263.785 264.817 264.8 264.594 265.793C264.213 267.535 263.313 269.227 261.823 270.206C260.542 271.049 258.959 271.286 257.426 271.38C256.073 271.459 254.676 271.445 253.403 270.962C252.438 270.595 251.553 269.926 251.049 269.04C251.056 269.054 251.056 269.076 251.056 269.09C251.359 270.415 252.496 271.43 253.77 271.912C255.044 272.395 256.44 272.409 257.793 272.33C259.326 272.236 260.909 272.006 262.19 271.157C263.68 270.177 264.573 268.478 264.961 266.744C265.185 265.75 265.256 264.735 265.264 263.713C265.278 262.302 265.861 260.977 266.89 260.012C267.142 259.775 267.38 259.537 267.596 259.285C267.912 258.918 268.063 258.443 268.027 257.968C268.013 257.781 267.991 257.594 267.97 257.414C267.603 257.846 266.739 258.861 266.523 259.069C265.487 260.02 264.904 261.351 264.897 262.762Z" fill="#37474F"/>
<path d="M257.26 252.209C257.649 254.26 257.275 256.413 256.483 258.35C255.691 260.286 254.511 262.035 253.237 263.691C252.625 264.49 251.985 265.275 251.538 266.175C251.099 267.06 250.855 268.075 251.056 269.04C251.56 269.926 252.445 270.602 253.41 270.962C254.684 271.445 256.08 271.459 257.433 271.38C258.966 271.286 260.549 271.056 261.831 270.206C263.32 269.227 264.213 267.528 264.602 265.793C264.825 264.8 264.897 263.785 264.904 262.763C264.918 261.352 265.501 260.027 266.53 259.062C266.746 258.861 267.61 257.838 267.977 257.406C267.646 254.901 266.48 253.123 266.48 253.123L257.26 252.209Z" fill="#455A64"/>
<path d="M228.306 150.011L228.601 207.344L231.285 250.402C238.087 254.7 243.01 251.186 243.01 251.186C245.586 232.303 245.939 217.495 244.535 209.634L245.824 178.519L249.696 210.807L256.202 253.116C263.176 257.644 268.107 253.116 268.107 253.116C268.107 238.639 269.395 219.251 265.408 208.813C268.222 176.554 262.809 150.58 262.809 150.58L228.306 150.011Z" fill="#37474F"/>
<path d="M244.406 166.785L245.831 178.519L245.226 192.91L242.607 169.247C236.539 166.871 235.748 163.531 235.748 163.531C239.706 166.432 244.406 166.785 244.406 166.785Z" fill="#263238"/>
<path d="M232.933 82.4552L231.379 81.6417C231.364 81.6345 231.357 81.6273 231.343 81.6201L231.278 81.5841V81.5913C231.033 81.4833 230.738 81.4761 230.472 81.6273L216.56 89.6615C216.005 89.9854 215.66 90.5757 215.66 91.2165V97.9548C215.66 98.2643 215.811 98.5091 216.027 98.6747H216.02L216.048 98.6891C216.099 98.7251 216.156 98.7538 216.221 98.7826L217.725 99.5817L217.653 98.3507L230.911 90.6909C231.465 90.367 231.811 89.7766 231.811 89.1359V83.2687L232.933 82.4552Z" fill="#455A64"/>
<path d="M232.487 91.526L218.575 99.5602C217.977 99.9057 217.229 99.4738 217.229 98.7827V92.0444C217.229 91.4036 217.574 90.8133 218.129 90.4894L232.041 82.4552C232.638 82.1097 233.387 82.5416 233.387 83.2327V89.971C233.387 90.6118 233.041 91.2093 232.487 91.526Z" fill="#37474F"/>
<path d="M218.129 92.0443C218.129 91.7275 218.301 91.4252 218.575 91.2668L232.487 83.2327V89.971C232.487 90.2877 232.314 90.5901 232.041 90.7485L218.129 98.7826V92.0443Z" fill="#246BEB"/>
<path d="M226.441 102.008C226.636 101.569 226.938 101.187 227.341 100.928C228.514 100.194 229.435 99.0635 229.903 97.7676C230.393 96.407 230.4 94.924 230.544 93.4842C230.688 92.0444 231.019 90.5326 232.012 89.4815C229.543 88.4881 228.536 90.7342 227.636 94.3337L219.359 99.1138L219.474 99.3874C219.712 99.9273 219.698 100.546 219.446 101.072L217.035 105.967C221.303 108.825 225.168 106.882 225.168 106.882C225.585 104.995 226.139 102.692 226.441 102.008Z" fill="#FFA8A7"/>
<path d="M224.772 111.921C225.203 110.164 225.729 107.875 226.067 105.787C223.023 106.882 219.482 106.464 216.775 104.686C215.797 106.334 214.919 108.055 214.148 109.833C217.078 112.159 221.166 112.965 224.772 111.921Z" fill="#455A64"/>
<path opacity="0.2" d="M224.772 111.921C225.203 110.164 225.729 107.875 226.067 105.787C223.023 106.882 219.482 106.464 216.775 104.686C215.797 106.334 214.919 108.055 214.148 109.833C217.078 112.159 221.166 112.965 224.772 111.921Z" fill="white"/>
<path d="M224.002 114.858C224.002 114.858 224.34 113.649 224.764 111.921C221.166 112.965 217.078 112.151 214.134 109.833C211.773 115.233 210.341 121.121 209.844 126.931C209.693 128.659 209.636 130.422 210.104 132.093C210.564 133.763 211.629 135.339 213.198 136.059C215.394 137.06 218.021 136.196 220.014 134.828C223.757 132.265 226.103 128.169 228.327 124.217L234.351 102.706C230.774 103.081 227.852 105.082 224.002 114.858Z" fill="#455A64"/>
<path opacity="0.3" d="M224.002 114.858C224.002 114.858 224.34 113.649 224.764 111.921C221.166 112.965 217.078 112.151 214.134 109.833C211.773 115.233 210.341 121.121 209.844 126.931C209.693 128.659 209.636 130.422 210.104 132.093C210.564 133.763 211.629 135.339 213.198 136.059C215.394 137.06 218.021 136.196 220.014 134.828C223.757 132.265 226.103 128.169 228.327 124.217L234.351 102.706C230.774 103.081 227.852 105.082 224.002 114.858Z" fill="white"/>
<path opacity="0.1" d="M224.002 114.858C222.591 119.854 220.381 127.831 220.381 127.831C225.412 122.727 224.002 114.858 224.002 114.858Z" fill="black"/>
<path opacity="0.1" d="M233.466 105.895C231.638 107.141 230.083 108.789 228.968 110.697C226.996 114.066 226.42 118.047 225.88 121.913C225.506 124.62 225.124 127.327 224.75 130.041C226.082 128.205 227.219 126.197 228.334 124.224L233.466 105.895Z" fill="black"/>
<path d="M240.778 102.022L234.358 102.699C229.097 107.342 226.384 117.075 227.514 127.824C228.644 138.579 228.306 150.004 228.306 150.004C242.563 160.414 260.557 152.833 262.817 150.573L261.759 137.391C261.636 135.908 261.888 134.418 262.478 133.05C263.824 129.919 266.228 123.763 266.552 118.998C267.005 112.317 263.947 106.716 263.947 106.716L254.612 102.641L240.778 102.022Z" fill="#455A64"/>
<g opacity="0.3">
<path d="M240.778 102.022L234.358 102.699C229.097 107.342 226.384 117.075 227.514 127.824C228.644 138.579 228.306 150.004 228.306 150.004C242.563 160.414 260.557 152.833 262.817 150.573L261.759 137.391C261.636 135.908 261.888 134.418 262.478 133.05C263.824 129.919 266.228 123.763 266.552 118.998C267.005 112.317 263.947 106.716 263.947 106.716L254.612 102.641L240.778 102.022Z" fill="white"/>
</g>
<path opacity="0.1" d="M257.167 114.858C253.914 117.464 248.998 128.608 246.745 137.629C241.311 140.883 232.005 143.762 232.005 143.762L232.941 151.984C241.203 153.15 254.784 151.645 260.672 146.26C261.212 145.195 261.73 144.129 262.219 143.129L261.759 137.391C261.636 135.908 261.888 134.418 262.478 133.05C263.824 129.919 266.228 123.763 266.552 118.998C266.725 116.406 266.372 113.98 265.875 111.971C263.421 112.67 259.16 113.253 257.167 114.858Z" fill="black"/>
<path d="M239.001 111.388C233.624 123.756 233.711 136.484 233.711 136.484L236.352 142.171L240.498 136.736C239.9 124.426 240.994 111.748 240.994 111.748L239.001 111.388Z" fill="white"/>
<path d="M238.77 106.723C238.569 109.214 238.994 111.395 238.994 111.395C239.699 111.878 240.994 111.763 240.994 111.763C242.7 110.431 244.204 107.89 244.204 107.89L240.994 106.73H238.77V106.723Z" fill="white"/>
<path d="M240.994 106.723C243.758 107.745 246.22 112.662 246.22 112.662C253.482 106.493 254.612 102.649 254.612 102.649C252.748 99.9921 250.711 99.5674 250.711 99.5674L240.994 106.723Z" fill="#455A64"/>
<path d="M240.994 106.723C238.886 106.781 237.014 109.725 237.014 109.725C236.676 104.578 240.994 100.611 240.994 100.611V106.723Z" fill="#455A64"/>
<g opacity="0.2">
<path d="M240.994 106.723C243.758 107.745 246.22 112.662 246.22 112.662C253.482 106.493 254.612 102.649 254.612 102.649C252.748 99.9921 250.711 99.5674 250.711 99.5674L240.994 106.723Z" fill="white"/>
<path d="M240.994 106.723C238.886 106.781 237.014 109.725 237.014 109.725C236.676 104.578 240.994 100.611 240.994 100.611V106.723Z" fill="white"/>
</g>
<path d="M250.876 93.7937L240.994 97.3284V100.993C243.211 100.561 245.421 99.9921 247.263 98.7178C248.962 97.53 250.243 95.7662 250.876 93.7937Z" fill="#FF9192"/>
<path d="M250.876 93.7937C250.243 95.7663 248.962 97.53 247.256 98.7107C245.414 99.9849 243.204 100.561 240.987 100.986V106.716C240.987 106.716 251.438 102.022 251.438 99.8121C251.438 97.602 251.438 93.585 251.438 93.585L250.876 93.7937Z" fill="#FFA8A7"/>
<path d="M231.839 79.3021C230.45 79.3525 229.054 78.8917 227.96 78.0422C227.334 77.5527 226.809 76.9408 226.42 76.2425C226.089 75.645 226.636 74.9394 227.312 75.0618C228.075 75.1986 228.86 75.213 229.601 75.0834C227.845 72.7941 227.06 69.8281 227.471 66.9989C227.571 66.3222 228.313 65.9334 228.925 66.2286C232.055 67.7692 235.604 68.5251 239.08 68.2803C240.944 68.1508 242.787 67.7548 244.651 67.6108C246.515 67.4668 248.458 67.5964 250.128 68.4459C251.798 69.2954 253.122 70.9872 253.122 72.8589C253.561 72.2254 254.209 71.8871 254.972 71.7863C255.734 71.6855 256.541 71.9231 257.131 72.427C256.051 73.0173 255 73.6148 253.921 74.2123C255.029 73.8164 256.418 74.6803 256.965 75.7169C257.512 76.7536 257.541 77.9774 257.555 79.1509C257.577 80.7131 257.599 82.2825 257.347 83.8231C257.095 85.3637 256.562 86.8899 255.576 88.0993C254.748 89.1144 253.618 89.8847 252.366 90.2734C250.682 90.7989 248.832 90.6406 247.148 90.1078C245.464 89.5751 243.917 88.6824 242.419 87.7465C238.67 85.3997 235.085 82.3041 231.839 79.3021Z" fill="#263238"/>
<path d="M231.602 76.1849C230.522 82.6064 231.242 89.3231 233.66 95.3703C234.222 96.7741 234.949 98.2283 236.266 98.9842C237.64 99.7689 239.346 99.6033 240.915 99.373C243.441 98.9914 245.989 98.4731 248.264 97.3068C250.538 96.1406 252.539 94.2472 253.352 91.8284C255.022 92.2315 256.771 91.454 257.807 90.079C258.844 88.704 259.211 86.933 259.254 85.2125C259.276 84.111 259.052 82.8152 258.066 82.3256C257.145 81.8721 256.044 82.3832 255.245 83.0239C253.942 84.075 252.971 85.5364 252.503 87.1418C251.776 84.4638 250.646 81.8721 249.919 79.1941C249.631 78.143 249.278 76.9911 248.357 76.4008C247.234 75.6809 245.766 76.0913 244.471 76.4152C240.498 77.3943 235.496 77.4015 231.602 76.1849Z" fill="#FFA8A7"/>
<path d="M239.418 84.327L236.28 89.6039L240.023 90.3094L239.418 84.327Z" fill="#F28F8F"/>
<path d="M243.621 92.1235C242.671 92.5843 241.729 93.045 240.779 93.5058C241.189 94.1537 242.232 94.4344 242.93 94.1177C243.636 93.8081 243.83 92.865 243.621 92.1235Z" fill="#F28F8F"/>
<path opacity="0.3" d="M243.621 92.1235C242.671 92.5843 241.729 93.045 240.779 93.5058C241.189 94.1537 242.232 94.4344 242.93 94.1177C243.636 93.8081 243.83 92.865 243.621 92.1235Z" fill="black"/>
<path d="M241.952 94.2112C242.29 94.2688 242.643 94.2472 242.938 94.1176C243.485 93.8729 243.722 93.2394 243.701 92.6202C243.298 92.6202 242.895 92.757 242.578 93.009C242.218 93.3042 241.995 93.7505 241.952 94.2112Z" fill="#F28F8F"/>
<path d="M244.831 84.5358C244.888 85.1261 244.464 85.6517 243.873 85.7093C243.283 85.7668 242.758 85.3421 242.7 84.7518C242.643 84.1615 243.067 83.6359 243.657 83.5783C244.24 83.5135 244.773 83.9455 244.831 84.5358Z" fill="#263238"/>
<path d="M235.827 85.0973C235.884 85.6877 235.46 86.2132 234.869 86.2708C234.279 86.3284 233.754 85.9036 233.696 85.3133C233.639 84.723 234.063 84.1975 234.654 84.1399C235.244 84.0751 235.769 84.507 235.827 85.0973Z" fill="#263238"/>
<path d="M234.358 80.9506C233.624 81.5769 232.89 82.2033 232.156 82.8296C231.868 82.2896 232.019 81.5409 232.451 81.109C232.883 80.6699 233.819 80.6555 234.358 80.9506Z" fill="#263238"/>
<path d="M243.492 79.8996C244.334 80.3676 245.183 80.8355 246.025 81.2962C246.205 80.7131 245.903 80.0076 245.392 79.6693C244.881 79.3309 243.96 79.5037 243.492 79.8996Z" fill="#263238"/>
<path d="M225.657 151.58C225.657 151.573 225.657 151.573 225.657 151.566C225.657 151.559 225.657 151.552 225.657 151.544C225.657 151.53 225.65 151.523 225.65 151.508C225.65 151.494 225.643 151.487 225.643 151.472C225.635 151.458 225.635 151.451 225.628 151.436C225.621 151.422 225.621 151.415 225.614 151.4C225.607 151.386 225.607 151.379 225.599 151.364C225.592 151.35 225.585 151.343 225.578 151.328L218.676 138.125C218.668 138.111 218.661 138.104 218.654 138.089C218.647 138.075 218.64 138.061 218.632 138.053C218.625 138.039 218.618 138.025 218.611 138.01C218.604 137.996 218.596 137.981 218.582 137.967C218.575 137.953 218.56 137.938 218.553 137.924C218.546 137.909 218.532 137.895 218.524 137.881C218.517 137.866 218.503 137.852 218.496 137.837C218.488 137.823 218.474 137.809 218.467 137.794C218.46 137.78 218.445 137.765 218.438 137.758C218.431 137.744 218.416 137.737 218.409 137.722C218.402 137.715 218.395 137.701 218.388 137.693C218.38 137.686 218.373 137.672 218.359 137.665C218.352 137.657 218.344 137.65 218.337 137.643C218.33 137.636 218.323 137.629 218.316 137.621C218.308 137.614 218.301 137.607 218.294 137.6C218.287 137.593 218.28 137.585 218.272 137.578C218.265 137.571 218.265 137.564 218.258 137.564C218.251 137.557 218.251 137.557 218.244 137.55C218.237 137.542 218.236 137.542 218.229 137.535C218.222 137.528 218.222 137.528 218.215 137.521C218.208 137.514 218.208 137.514 218.201 137.506C218.193 137.499 218.193 137.499 218.186 137.492C218.179 137.485 218.179 137.485 218.172 137.478C218.165 137.47 218.165 137.47 218.157 137.463C218.15 137.456 218.15 137.456 218.143 137.449C218.136 137.442 218.136 137.442 218.129 137.434C218.121 137.427 218.121 137.427 218.114 137.42C218.107 137.413 218.107 137.413 218.1 137.406C218.093 137.398 218.093 137.398 218.085 137.391C218.078 137.384 218.078 137.384 218.071 137.377C218.064 137.37 218.064 137.37 218.057 137.362C218.049 137.355 218.049 137.355 218.042 137.348C218.035 137.341 218.035 137.341 218.028 137.334C218.021 137.326 218.013 137.319 218.006 137.312C217.999 137.305 217.992 137.298 217.977 137.29C217.97 137.283 217.963 137.276 217.949 137.269C217.913 137.24 217.884 137.204 217.848 137.175C217.841 137.168 217.833 137.161 217.826 137.154C217.819 137.146 217.812 137.139 217.805 137.132C217.797 137.125 217.79 137.118 217.783 137.11C217.776 137.103 217.769 137.096 217.761 137.089C217.754 137.082 217.754 137.082 217.747 137.074C217.74 137.067 217.74 137.067 217.733 137.06C217.725 137.053 217.725 137.053 217.718 137.046C217.711 137.038 217.711 137.038 217.704 137.031C217.697 137.024 217.697 137.024 217.689 137.017C217.682 137.01 217.682 137.01 217.675 137.002C217.668 136.995 217.668 136.995 217.661 136.988C217.654 136.981 217.654 136.981 217.646 136.974C217.639 136.966 217.639 136.966 217.632 136.959C217.625 136.952 217.625 136.952 217.618 136.945C217.61 136.938 217.61 136.938 217.603 136.93C217.596 136.923 217.596 136.923 217.589 136.916C217.582 136.909 217.582 136.909 217.574 136.902C217.567 136.894 217.56 136.894 217.56 136.887C217.553 136.88 217.546 136.88 217.546 136.873C217.538 136.866 217.531 136.866 217.531 136.858C217.524 136.851 217.517 136.851 217.517 136.844C217.51 136.837 217.502 136.837 217.502 136.83C217.495 136.822 217.488 136.815 217.481 136.815C217.474 136.808 217.466 136.801 217.459 136.801C217.452 136.794 217.445 136.786 217.438 136.786C217.43 136.779 217.423 136.772 217.409 136.765C217.394 136.758 217.387 136.75 217.373 136.743C217.358 136.736 217.351 136.729 217.337 136.722C217.322 136.714 217.308 136.707 217.301 136.693C217.286 136.686 217.272 136.671 217.258 136.664C217.243 136.657 217.229 136.642 217.214 136.635C217.2 136.628 217.186 136.614 217.171 136.606C217.164 136.599 217.157 136.599 217.143 136.592L209.089 131.941C209.082 131.934 209.074 131.934 209.067 131.927C209.053 131.92 209.038 131.913 209.024 131.898C209.01 131.891 208.995 131.884 208.981 131.877C208.966 131.869 208.952 131.862 208.938 131.855C208.923 131.848 208.909 131.841 208.894 131.833C208.88 131.826 208.866 131.819 208.851 131.812C208.837 131.805 208.822 131.797 208.808 131.797C208.794 131.79 208.779 131.783 208.765 131.783C208.75 131.776 208.736 131.776 208.722 131.769C208.707 131.761 208.693 131.761 208.678 131.754C208.671 131.754 208.657 131.747 208.65 131.747C208.642 131.747 208.643 131.747 208.635 131.747C208.621 131.747 208.599 131.74 208.585 131.74C208.563 131.74 208.549 131.74 208.527 131.74C208.47 131.74 208.434 131.761 208.405 131.79L207.426 132.885C207.433 132.877 207.455 132.885 207.462 132.877C207.383 132.935 207.376 133.065 207.491 133.28L214.393 146.484C214.645 146.959 215.322 147.628 215.926 147.974L223.98 152.624C224.397 152.862 224.642 152.869 224.685 152.703C224.678 152.725 224.685 152.761 224.671 152.775L225.65 151.681C225.664 151.667 225.671 151.652 225.679 151.631C225.686 151.616 225.686 151.602 225.686 151.588C225.657 151.609 225.657 151.595 225.657 151.58ZM207.592 132.892C207.613 132.892 207.62 132.877 207.649 132.885C207.656 132.885 207.671 132.892 207.678 132.899C207.642 132.885 207.62 132.892 207.592 132.892ZM217.322 138.723C217.351 138.759 217.394 138.795 217.416 138.831C217.394 138.795 217.358 138.759 217.322 138.723ZM224.671 152.682C224.671 152.61 224.642 152.531 224.592 152.416C224.642 152.509 224.671 152.588 224.678 152.653C224.671 152.675 224.671 152.675 224.671 152.682Z" fill="#455A64"/>
<path opacity="0.15" d="M225.657 151.581C225.657 151.573 225.657 151.573 225.657 151.566C225.657 151.559 225.657 151.552 225.657 151.545C225.657 151.53 225.65 151.523 225.65 151.509C225.65 151.494 225.643 151.487 225.643 151.473C225.635 151.458 225.635 151.451 225.628 151.437C225.621 151.422 225.621 151.415 225.614 151.401C225.607 151.386 225.607 151.379 225.599 151.365C225.592 151.35 225.585 151.343 225.578 151.329L218.676 138.125L217.697 139.22L224.599 152.423C224.649 152.516 224.678 152.596 224.685 152.66C224.692 152.725 224.685 152.776 224.649 152.804L225.628 151.71C225.643 151.696 225.65 151.681 225.657 151.66C225.664 151.645 225.664 151.631 225.664 151.616C225.657 151.609 225.657 151.595 225.657 151.581Z" fill="white"/>
<path opacity="0.2" d="M218.647 138.089C218.64 138.075 218.632 138.061 218.625 138.053C218.618 138.039 218.611 138.025 218.604 138.01C218.596 137.996 218.589 137.981 218.575 137.967C218.568 137.953 218.553 137.938 218.546 137.924C218.539 137.909 218.524 137.895 218.517 137.881C218.51 137.866 218.496 137.852 218.488 137.837C218.481 137.823 218.467 137.809 218.46 137.794C218.452 137.78 218.438 137.765 218.431 137.758C218.424 137.744 218.409 137.737 218.402 137.722C218.395 137.715 218.388 137.701 218.38 137.693C218.373 137.686 218.366 137.672 218.352 137.665C218.344 137.657 218.337 137.65 218.33 137.643C218.323 137.636 218.316 137.629 218.308 137.621C218.301 137.614 218.294 137.607 218.287 137.6C218.28 137.593 218.272 137.585 218.265 137.578C218.258 137.571 218.258 137.564 218.251 137.564C218.244 137.557 218.244 137.557 218.236 137.55C218.229 137.542 218.229 137.542 218.222 137.535C218.215 137.528 218.215 137.528 218.208 137.521C218.2 137.514 218.201 137.514 218.193 137.506C218.186 137.499 218.186 137.499 218.179 137.492C218.172 137.485 218.172 137.485 218.165 137.478C218.157 137.47 218.157 137.47 218.15 137.463C218.143 137.456 218.143 137.456 218.136 137.449C218.129 137.442 218.129 137.442 218.121 137.434C218.114 137.427 218.114 137.427 218.107 137.42C218.1 137.413 218.1 137.413 218.093 137.406C218.085 137.398 218.085 137.398 218.078 137.391C218.071 137.384 218.071 137.384 218.064 137.377C218.057 137.37 218.057 137.37 218.049 137.362C218.042 137.355 218.042 137.355 218.035 137.348C218.028 137.341 218.028 137.341 218.021 137.334C218.013 137.326 218.006 137.319 217.999 137.312C217.992 137.305 217.985 137.298 217.97 137.29C217.963 137.283 217.956 137.276 217.941 137.269C217.905 137.24 217.877 137.204 217.841 137.175C217.833 137.168 217.826 137.161 217.819 137.154C217.812 137.146 217.805 137.139 217.797 137.132C217.79 137.125 217.783 137.118 217.776 137.11C217.769 137.103 217.761 137.096 217.754 137.089C217.747 137.082 217.747 137.082 217.74 137.074C217.733 137.067 217.733 137.067 217.725 137.06C217.718 137.053 217.718 137.053 217.711 137.046C217.704 137.038 217.704 137.038 217.697 137.031C217.689 137.024 217.689 137.024 217.682 137.017C217.675 137.01 217.675 137.01 217.668 137.002C217.661 136.995 217.661 136.995 217.654 136.988C217.646 136.981 217.646 136.981 217.639 136.974C217.632 136.966 217.632 136.966 217.625 136.959C217.618 136.952 217.618 136.952 217.61 136.945C217.603 136.938 217.603 136.938 217.596 136.93C217.589 136.923 217.589 136.923 217.582 136.916C217.574 136.909 217.574 136.909 217.567 136.902C217.56 136.894 217.553 136.894 217.553 136.887C217.546 136.88 217.538 136.88 217.538 136.873C217.531 136.866 217.524 136.866 217.524 136.858C217.517 136.851 217.51 136.851 217.51 136.844C217.502 136.837 217.495 136.837 217.495 136.83C217.488 136.822 217.481 136.815 217.474 136.815C217.466 136.808 217.459 136.801 217.452 136.801C217.445 136.794 217.438 136.786 217.43 136.786C217.423 136.779 217.416 136.772 217.402 136.765C217.387 136.758 217.38 136.75 217.366 136.743C217.351 136.736 217.344 136.729 217.33 136.722C217.315 136.714 217.301 136.707 217.294 136.693C217.279 136.686 217.265 136.671 217.25 136.664C217.236 136.657 217.222 136.642 217.207 136.635C217.193 136.628 217.178 136.614 217.164 136.606C217.157 136.599 217.15 136.599 217.135 136.592L209.082 131.941C209.074 131.934 209.067 131.934 209.06 131.927C209.046 131.92 209.031 131.913 209.017 131.898C209.002 131.891 208.988 131.884 208.974 131.877C208.959 131.869 208.945 131.862 208.93 131.855C208.916 131.848 208.902 131.841 208.887 131.833C208.873 131.826 208.858 131.819 208.844 131.812C208.83 131.805 208.815 131.797 208.801 131.797C208.786 131.79 208.772 131.783 208.758 131.783C208.743 131.776 208.729 131.776 208.714 131.769C208.7 131.761 208.686 131.761 208.671 131.754C208.664 131.754 208.65 131.747 208.642 131.747C208.635 131.747 208.635 131.747 208.628 131.747C208.614 131.747 208.592 131.74 208.578 131.74C208.556 131.74 208.542 131.74 208.52 131.74C208.463 131.74 208.427 131.761 208.398 131.79L207.419 132.885C207.462 132.834 207.541 132.827 207.656 132.849C207.772 132.87 207.923 132.935 208.103 133.036L216.156 137.686C216.308 137.773 216.459 137.881 216.61 137.996C216.761 138.111 216.912 138.248 217.049 138.385C217.186 138.521 217.315 138.658 217.423 138.795C217.531 138.932 217.625 139.061 217.689 139.184L218.668 138.089C218.661 138.111 218.654 138.104 218.647 138.089Z" fill="white"/>
<path d="M218.496 151.293C215.624 149.493 213.479 145.972 213.918 142.61C213.918 142.61 219.28 145.425 221.691 143.928L220.453 141.567C223.735 141.567 227.305 142.704 229.788 144.849C234.79 144.086 240.001 142.416 244.694 140.523C246.112 139.954 247.515 139.328 249.005 138.982C250.495 138.629 252.085 138.565 253.518 139.105C254.95 139.644 256.173 140.861 256.44 142.366C256.72 143.928 255.936 145.533 254.77 146.606C253.604 147.679 252.107 148.312 250.61 148.852C244.427 151.069 221.367 153.092 218.496 151.293Z" fill="#FFA8A7"/>
<path d="M252.258 129.141L247.868 140.444L252.704 147.981C259.743 144.777 258.304 145.692 263.169 133.914L252.258 129.141Z" fill="#FFA8A7"/>
<path d="M238.706 141.826C236.007 142.776 233.401 143.597 232.005 143.755C230.004 147.823 232.379 151.566 232.941 151.976C235.582 151.912 238.216 151.732 240.757 151.429C238.648 148.787 237.842 145.116 238.706 141.826Z" fill="#455A64"/>
<path opacity="0.2" d="M238.706 141.826C236.007 142.776 233.401 143.597 232.005 143.755C230.004 147.823 232.379 151.566 232.941 151.976C235.582 151.912 238.216 151.732 240.757 151.429C238.648 148.787 237.842 145.116 238.706 141.826Z" fill="white"/>
<path d="M261.715 105.78C256.433 112.029 250.596 131.416 247.868 138.327C247.868 138.327 243.146 140.264 238.698 141.833C237.842 145.116 238.641 148.794 240.757 151.444C249.235 150.443 256.634 148.118 259.477 144.453C267.272 128.234 274.361 106.435 261.715 105.78Z" fill="#455A64"/>
<path opacity="0.3" d="M261.715 105.78C256.433 112.029 250.596 131.416 247.868 138.327C247.868 138.327 243.146 140.264 238.698 141.833C237.842 145.116 238.641 148.794 240.757 151.444C249.235 150.443 256.634 148.118 259.477 144.453C267.272 128.234 274.361 106.435 261.715 105.78Z" fill="white"/>
<path d="M221.216 15.4538L268.466 42.6949C269.107 43.0621 269.611 43.5876 269.964 44.2139C270.295 44.8043 270.482 45.4738 270.482 46.1793V61.7724C270.482 64.4648 267.437 66.7541 264.422 65.0336L242.297 52.2769L242.383 54.3286C242.369 54.3502 242.347 54.3574 242.333 54.379V54.3862C242.319 54.3934 242.304 54.4006 242.297 54.415C242.29 54.415 242.29 54.4222 242.29 54.4222C241.7 54.8109 240.67 55.3653 240.433 55.4876L240.44 55.4732C240.332 55.502 240.21 55.4588 240.167 55.3365L233.963 47.5327L217.186 37.8428C215.933 37.1301 215.163 35.7983 215.163 34.3584V18.7149C215.156 15.8209 219.417 14.4171 221.216 15.4538Z" fill="#246BEB"/>
<path opacity="0.2" d="M242.297 52.2769L239.922 50.8875L240.433 55.466L242.383 54.3358L242.297 52.2769Z" fill="white"/>
<path opacity="0.4" d="M265.976 46.4745C265.717 45.9561 265.357 45.4954 264.904 45.1282C264.753 45.0059 264.587 44.8979 264.414 44.7971L217.164 17.5559C216.272 17.0448 215.163 17.6855 215.163 18.715C215.163 15.8209 219.424 14.4243 221.223 15.4538L268.474 42.695C269.114 43.0621 269.618 43.5876 269.971 44.214L265.976 46.4745Z" fill="white"/>
<path opacity="0.2" d="M266.43 63.8746V48.2742C266.43 48.1159 266.415 47.9575 266.401 47.7991C266.336 47.3312 266.192 46.8848 265.983 46.4745L269.971 44.2068C270.302 44.7971 270.489 45.4666 270.489 46.1721V61.7653C270.489 64.4577 267.444 66.747 264.429 65.0264C265.321 65.5376 266.43 64.8968 266.43 63.8746Z" fill="white"/>
<path d="M224.556 28.8583L224.541 33.9984L223.498 33.3937L221.533 29.5134L221.526 32.2563L220.281 31.5364L220.295 26.4034L221.339 27.001L223.303 30.8812L223.318 28.1456L224.556 28.8583Z" fill="white"/>
<path d="M228.924 34.5456C228.924 34.6464 228.91 34.7688 228.903 34.8767L226.384 33.4225C226.485 33.8905 226.787 34.2936 227.233 34.5528C227.571 34.7472 227.802 34.7688 228.032 34.6752L228.665 35.8054C228.334 36.0358 227.845 35.9782 227.19 35.5967C225.959 34.8839 225.16 33.5521 225.167 32.3643C225.167 31.1692 225.981 30.7805 227.075 31.414C228.104 32.0043 228.932 33.2282 228.924 34.5456ZM226.369 32.681L227.787 33.5017C227.722 33.0482 227.456 32.6306 227.082 32.4075C226.7 32.1843 226.441 32.2995 226.369 32.681Z" fill="white"/>
<path d="M236.834 39.117C236.834 39.2178 236.827 39.3402 236.813 39.4482L234.294 37.9939C234.394 38.4619 234.697 38.865 235.143 39.1242C235.481 39.3186 235.704 39.3402 235.942 39.2394L236.575 40.3696C236.244 40.6 235.755 40.5424 235.1 40.1609C233.862 39.4482 233.07 38.1163 233.07 36.9285C233.07 35.7334 233.883 35.3447 234.977 35.9782C236.014 36.5685 236.842 37.7996 236.834 39.117ZM234.279 37.2452L235.697 38.0659C235.64 37.6124 235.366 37.1949 234.992 36.9717C234.618 36.7557 234.351 36.8709 234.279 37.2452Z" fill="white"/>
<path d="M233.077 34.9415L231.638 38.0947L230.386 37.3748L228.975 32.573L230.22 33.2857L231.048 36.2013L231.926 34.272L233.077 34.9415Z" fill="white"/>
<path d="M239.728 38.7138V39.9736C239.62 39.8944 239.54 39.8441 239.454 39.7937C238.958 39.5057 238.619 39.5993 238.619 40.2976L238.612 42.119L237.396 41.4206L237.41 37.4396L238.569 38.1091V38.5914C238.814 38.3683 239.217 38.4186 239.728 38.7138Z" fill="white"/>
<path d="M244.276 41.3415C245.219 41.8814 245.975 43.1125 245.975 44.3723C245.968 45.6465 245.205 45.9921 244.269 45.4522C243.816 45.193 243.477 44.8546 243.247 44.4083V44.797L242.088 44.1275L242.103 38.6851L243.319 39.3834L243.312 41.1975C243.549 41.0535 243.873 41.1111 244.276 41.3415ZM244.017 44.1995C244.427 44.4371 244.744 44.2787 244.751 43.6668C244.751 43.0693 244.435 42.5365 244.024 42.3062C243.614 42.0686 243.297 42.227 243.29 42.8245C243.29 43.4364 243.607 43.962 244.017 44.1995Z" fill="white"/>
<path d="M250.077 46.7624C250.077 46.8632 250.063 46.9856 250.056 47.0935L247.537 45.6393C247.637 46.1073 247.94 46.5104 248.386 46.7696C248.724 46.964 248.947 46.9856 249.185 46.8848L249.825 48.015C249.487 48.2454 249.005 48.1878 248.35 47.8062C247.119 47.0935 246.32 45.7617 246.32 44.5739C246.32 43.3788 247.134 42.9901 248.228 43.6236C249.25 44.2139 250.085 45.445 250.077 46.7624ZM247.522 44.8978L248.94 45.7113C248.883 45.2578 248.609 44.8402 248.235 44.6243C247.861 44.4011 247.594 44.5163 247.522 44.8978Z" fill="white"/>
<path d="M252.006 44.9842V46.0209L252.798 46.4744V47.5183L252.006 47.0647L251.999 48.3893C251.999 48.6845 252.143 48.9293 252.359 49.0589C252.496 49.138 252.625 49.1668 252.726 49.1452L253.028 50.2971C252.82 50.3331 252.503 50.2179 252.186 50.0379C251.301 49.5268 250.783 48.7277 250.783 47.7126L250.79 46.3736L250.279 46.0785V45.0346L250.79 45.3298V44.2931L252.006 44.9842Z" fill="white"/>
<path d="M254.792 46.5895V47.6262L255.59 48.0869V49.1308L254.784 48.6701V49.9947C254.784 50.2898 254.928 50.5346 255.144 50.6642C255.281 50.7434 255.411 50.7722 255.518 50.7506L255.814 51.8952C255.605 51.9312 255.288 51.8161 254.972 51.6361C254.086 51.1249 253.568 50.3258 253.568 49.3108L253.575 47.9718L253.071 47.6838V46.6399L253.575 46.9279V45.8912L254.792 46.5895Z" fill="white"/>
<path d="M259.729 52.3344C259.729 52.4352 259.715 52.5576 259.707 52.6656L257.188 51.2114C257.289 51.6793 257.591 52.0824 258.038 52.3416C258.376 52.536 258.599 52.5576 258.836 52.464L259.47 53.5942C259.132 53.8246 258.649 53.767 257.994 53.3855C256.764 52.6728 255.965 51.3409 255.965 50.1531C255.965 48.9581 256.778 48.5693 257.872 49.2028C258.901 49.7859 259.736 51.017 259.729 52.3344ZM257.174 50.4699L258.592 51.2905C258.527 50.8298 258.261 50.4123 257.886 50.1963C257.505 49.9731 257.246 50.0883 257.174 50.4699Z" fill="white"/>
<path d="M262.615 51.9312V53.191C262.507 53.1119 262.435 53.0615 262.342 53.0111C261.845 52.7231 261.514 52.8167 261.507 53.5222L261.499 55.3436L260.283 54.6381L260.298 50.657L261.456 51.3265V51.8088C261.708 51.5857 262.111 51.6432 262.615 51.9312Z" fill="white"/>
<path d="M177.334 41.8814C177.694 42.0902 177.982 42.5941 177.982 43.0045L177.96 49.5052C177.96 49.9156 177.665 50.0811 177.305 49.8796C176.938 49.6708 176.658 49.1669 176.658 48.7565L176.679 42.2558C176.679 41.8382 176.967 41.6655 177.334 41.8814Z" fill="#246BEB"/>
<path d="M180.818 40.4345C181.185 40.6433 181.473 41.1544 181.473 41.5647L181.437 54.9621C181.437 55.3725 181.142 55.5453 180.775 55.3293C180.415 55.1205 180.127 54.6166 180.127 54.2063L180.163 40.8088C180.163 40.3985 180.458 40.2329 180.818 40.4345Z" fill="#246BEB"/>
<path d="M184.294 44.646C184.654 44.8547 184.942 45.3515 184.942 45.769L184.92 54.6095C184.92 55.0198 184.625 55.1926 184.265 54.9838C183.905 54.775 183.617 54.2711 183.617 53.8607L183.639 45.0203C183.639 44.6028 183.934 44.4444 184.294 44.646Z" fill="#246BEB"/>
<path d="M187.785 43.5949C188.145 43.8036 188.433 44.3076 188.433 44.7179L188.404 55.5309C188.404 55.9412 188.109 56.114 187.749 55.9052C187.382 55.6964 187.101 55.1925 187.101 54.7822L187.13 43.9692C187.13 43.5589 187.418 43.3861 187.785 43.5949Z" fill="#246BEB"/>
<path d="M191.254 47.6911C191.621 47.8999 191.902 48.4038 191.902 48.8214L191.88 55.4445C191.88 55.8549 191.592 56.0276 191.225 55.8189C190.865 55.6101 190.577 55.1062 190.577 54.6958L190.599 48.0727C190.599 47.6551 190.894 47.4896 191.254 47.6911Z" fill="#246BEB"/>
<path d="M194.737 48.4758C195.097 48.6846 195.385 49.1886 195.385 49.5989L195.349 62.9963C195.349 63.4067 195.054 63.5722 194.694 63.3707C194.327 63.1619 194.046 62.658 194.046 62.2476L194.082 48.8502C194.082 48.4398 194.37 48.2671 194.737 48.4758Z" fill="#246BEB"/>
<path d="M198.221 48.0295C198.588 48.2383 198.876 48.7494 198.876 49.1598L198.818 68.2804C198.818 68.698 198.523 68.8563 198.156 68.6476C197.796 68.4388 197.508 67.9421 197.508 67.5245L197.566 48.4039C197.566 47.9863 197.861 47.8207 198.221 48.0295Z" fill="#246BEB"/>
<path d="M201.697 52.4929C202.057 52.7017 202.345 53.2056 202.345 53.616L202.309 67.0134C202.309 67.4237 202.014 67.5965 201.654 67.3878C201.294 67.179 201.006 66.675 201.006 66.2647L201.042 52.8673C201.042 52.4569 201.337 52.2842 201.697 52.4929Z" fill="#246BEB"/>
<path d="M205.166 57.9498C205.526 58.1585 205.814 58.6625 205.814 59.0728L205.792 67.4165C205.792 67.8269 205.497 67.9996 205.137 67.7909C204.77 67.5821 204.482 67.071 204.482 66.6606L204.504 58.3169C204.504 57.9138 204.799 57.741 205.166 57.9498Z" fill="#246BEB"/>
<path d="M208.65 56.5099C209.017 56.7187 209.297 57.2226 209.297 57.633L209.261 71.0304C209.261 71.4407 208.974 71.6135 208.606 71.4047C208.247 71.196 207.959 70.692 207.959 70.2817L207.995 56.8843C208.002 56.4739 208.29 56.3083 208.65 56.5099Z" fill="#246BEB"/>
<path d="M215.602 62.2116C215.969 62.4204 216.25 62.9171 216.25 63.3347L216.221 73.7877C216.221 74.198 215.933 74.3708 215.566 74.162C215.206 73.9533 214.919 73.4493 214.919 73.039L214.947 62.586C214.955 62.1612 215.242 62.0028 215.602 62.2116Z" fill="#246BEB"/>
<path d="M212.133 57.2802C212.493 57.489 212.781 57.9929 212.781 58.4105L212.731 76.4945C212.731 76.9048 212.435 77.0704 212.076 76.8688C211.709 76.6601 211.428 76.1561 211.428 75.7458L211.478 57.6618C211.485 57.2442 211.773 57.0715 212.133 57.2802Z" fill="#246BEB"/>
<path d="M219.079 65.9911C219.438 66.1998 219.726 66.7038 219.726 67.1141L219.705 74.2412C219.705 74.6515 219.41 74.8243 219.05 74.6155C218.69 74.4067 218.402 73.9028 218.402 73.4925L218.424 66.3654C218.431 65.9479 218.719 65.7823 219.079 65.9911Z" fill="#246BEB"/>
<g opacity="0.2">
<path d="M177.334 41.8814C177.694 42.0902 177.982 42.5941 177.982 43.0045L177.96 49.5052C177.96 49.9156 177.665 50.0811 177.305 49.8796C176.938 49.6708 176.658 49.1669 176.658 48.7565L176.679 42.2558C176.679 41.8382 176.967 41.6655 177.334 41.8814Z" fill="black"/>
<path d="M180.818 40.4345C181.185 40.6433 181.473 41.1544 181.473 41.5647L181.437 54.9621C181.437 55.3725 181.142 55.5453 180.775 55.3293C180.415 55.1205 180.127 54.6166 180.127 54.2063L180.163 40.8088C180.163 40.3985 180.458 40.2329 180.818 40.4345Z" fill="black"/>
<path d="M184.294 44.646C184.654 44.8547 184.942 45.3515 184.942 45.769L184.92 54.6095C184.92 55.0198 184.625 55.1926 184.265 54.9838C183.905 54.775 183.617 54.2711 183.617 53.8607L183.639 45.0203C183.639 44.6028 183.934 44.4444 184.294 44.646Z" fill="black"/>
<path d="M187.785 43.5949C188.145 43.8036 188.433 44.3076 188.433 44.7179L188.404 55.5309C188.404 55.9412 188.109 56.114 187.749 55.9052C187.382 55.6964 187.101 55.1925 187.101 54.7822L187.13 43.9692C187.13 43.5589 187.418 43.3861 187.785 43.5949Z" fill="black"/>
<path d="M191.254 47.6911C191.621 47.8999 191.902 48.4038 191.902 48.8214L191.88 55.4445C191.88 55.8549 191.592 56.0276 191.225 55.8189C190.865 55.6101 190.577 55.1062 190.577 54.6958L190.599 48.0727C190.599 47.6551 190.894 47.4896 191.254 47.6911Z" fill="black"/>
<path d="M194.737 48.4758C195.097 48.6846 195.385 49.1886 195.385 49.5989L195.349 62.9963C195.349 63.4067 195.054 63.5722 194.694 63.3707C194.327 63.1619 194.046 62.658 194.046 62.2476L194.082 48.8502C194.082 48.4398 194.37 48.2671 194.737 48.4758Z" fill="black"/>
<path d="M198.221 48.0295C198.588 48.2383 198.876 48.7494 198.876 49.1598L198.818 68.2804C198.818 68.698 198.523 68.8563 198.156 68.6476C197.796 68.4388 197.508 67.9421 197.508 67.5245L197.566 48.4039C197.566 47.9863 197.861 47.8207 198.221 48.0295Z" fill="black"/>
<path d="M201.697 52.4929C202.057 52.7017 202.345 53.2056 202.345 53.616L202.309 67.0134C202.309 67.4237 202.014 67.5965 201.654 67.3878C201.294 67.179 201.006 66.675 201.006 66.2647L201.042 52.8673C201.042 52.4569 201.337 52.2842 201.697 52.4929Z" fill="black"/>
<path d="M205.166 57.9498C205.526 58.1585 205.814 58.6625 205.814 59.0728L205.792 67.4165C205.792 67.8269 205.497 67.9996 205.137 67.7909C204.77 67.5821 204.482 67.071 204.482 66.6606L204.504 58.3169C204.504 57.9138 204.799 57.741 205.166 57.9498Z" fill="black"/>
<path d="M208.65 56.5099C209.017 56.7187 209.297 57.2226 209.297 57.633L209.261 71.0304C209.261 71.4407 208.974 71.6135 208.606 71.4047C208.247 71.196 207.959 70.692 207.959 70.2817L207.995 56.8843C208.002 56.4739 208.29 56.3083 208.65 56.5099Z" fill="black"/>
<path d="M215.602 62.2116C215.969 62.4204 216.25 62.9171 216.25 63.3347L216.221 73.7877C216.221 74.198 215.933 74.3708 215.566 74.162C215.206 73.9533 214.919 73.4493 214.919 73.039L214.947 62.586C214.955 62.1612 215.242 62.0028 215.602 62.2116Z" fill="black"/>
<path d="M212.133 57.2802C212.493 57.489 212.781 57.9929 212.781 58.4105L212.731 76.4945C212.731 76.9048 212.435 77.0704 212.076 76.8688C211.709 76.6601 211.428 76.1561 211.428 75.7458L211.478 57.6618C211.485 57.2442 211.773 57.0715 212.133 57.2802Z" fill="black"/>
<path d="M219.079 65.9911C219.438 66.1998 219.726 66.7038 219.726 67.1141L219.705 74.2412C219.705 74.6515 219.41 74.8243 219.05 74.6155C218.69 74.4067 218.402 73.9028 218.402 73.4925L218.424 66.3654C218.431 65.9479 218.719 65.7823 219.079 65.9911Z" fill="black"/>
</g>
<path d="M271.158 86.3428C271.518 86.5516 271.806 87.0555 271.806 87.4658L271.784 98.8331C271.784 99.2435 271.489 99.4163 271.129 99.2075C270.762 98.9987 270.482 98.4948 270.482 98.0844L270.503 86.7171C270.503 86.3068 270.791 86.134 271.158 86.3428Z" fill="#246BEB"/>
<path d="M274.642 83.6575C275.009 83.8663 275.297 84.3774 275.297 84.7878L275.261 103.556C275.261 103.966 274.966 104.132 274.599 103.923C274.239 103.714 273.951 103.21 273.951 102.8L273.987 84.0319C273.994 83.6215 274.282 83.4559 274.642 83.6575Z" fill="#246BEB"/>
<path d="M278.118 88.2072C278.478 88.416 278.766 88.9127 278.766 89.3303L278.744 104.096C278.744 104.506 278.449 104.679 278.089 104.47C277.729 104.261 277.442 103.757 277.442 103.347L277.463 88.5816C277.463 88.1641 277.758 87.9985 278.118 88.2072Z" fill="#246BEB"/>
<path d="M281.609 91.9364C281.969 92.1451 282.256 92.6491 282.256 93.0594L282.228 103.872C282.228 104.283 281.933 104.448 281.573 104.247C281.206 104.038 280.925 103.534 280.925 103.124L280.954 92.3107C280.954 91.8932 281.242 91.7204 281.609 91.9364Z" fill="#246BEB"/>
<path d="M285.078 96.4287C285.445 96.6374 285.726 97.1414 285.726 97.5589L285.704 104.182C285.704 104.592 285.416 104.765 285.049 104.556C284.689 104.348 284.401 103.844 284.401 103.433L284.423 96.8102C284.423 96.3927 284.718 96.2199 285.078 96.4287Z" fill="#246BEB"/>
<path d="M288.561 94.1608C288.921 94.3696 289.209 94.8735 289.209 95.2839L289.173 108.681C289.173 109.092 288.878 109.257 288.518 109.056C288.151 108.847 287.87 108.343 287.87 107.933L287.906 94.5352C287.914 94.1177 288.201 93.9449 288.561 94.1608Z" fill="#246BEB"/>
<path d="M292.045 93.7074C292.412 93.9162 292.7 94.4273 292.7 94.8377L292.642 113.951C292.642 114.369 292.347 114.527 291.98 114.318C291.62 114.109 291.332 113.613 291.332 113.195L291.39 94.0818C291.397 93.6714 291.685 93.4986 292.045 93.7074Z" fill="#246BEB"/>
<path d="M295.521 98.1779C295.881 98.3867 296.169 98.8906 296.169 99.301L296.133 112.698C296.133 113.109 295.838 113.274 295.478 113.073C295.118 112.864 294.83 112.36 294.83 111.95L294.866 98.5523C294.866 98.1348 295.161 97.9692 295.521 98.1779Z" fill="#246BEB"/>
<path d="M298.99 103.635C299.35 103.844 299.638 104.347 299.638 104.758L299.616 113.102C299.616 113.512 299.321 113.677 298.961 113.476C298.594 113.267 298.306 112.756 298.306 112.346L298.328 104.002C298.335 103.592 298.63 103.426 298.99 103.635Z" fill="#246BEB"/>
<path d="M302.481 103.498C302.848 103.707 303.129 104.211 303.129 104.621L303.093 116.708C303.093 117.119 302.805 117.291 302.438 117.083C302.078 116.874 301.79 116.37 301.79 115.96L301.826 103.872C301.826 103.462 302.121 103.289 302.481 103.498Z" fill="#246BEB"/>
<path d="M309.433 107.89C309.801 108.098 310.081 108.595 310.081 109.013L310.052 119.466C310.052 119.876 309.765 120.049 309.398 119.84C309.038 119.631 308.75 119.127 308.75 118.717L308.779 108.264C308.779 107.846 309.074 107.688 309.433 107.89Z" fill="#246BEB"/>
<path d="M305.964 100.582C306.324 100.791 306.612 101.295 306.612 101.713L306.562 122.18C306.562 122.59 306.267 122.755 305.907 122.554C305.54 122.345 305.259 121.841 305.259 121.431L305.309 100.964C305.309 100.539 305.597 100.374 305.964 100.582Z" fill="#246BEB"/>
<path d="M312.91 111.669C313.27 111.878 313.558 112.382 313.558 112.792L313.536 119.919C313.536 120.329 313.241 120.502 312.881 120.293C312.521 120.085 312.233 119.581 312.233 119.17L312.255 112.043C312.255 111.633 312.55 111.46 312.91 111.669Z" fill="#246BEB"/>
<g opacity="0.2">
<path d="M271.158 86.3428C271.518 86.5516 271.806 87.0555 271.806 87.4658L271.784 98.8331C271.784 99.2435 271.489 99.4163 271.129 99.2075C270.762 98.9987 270.482 98.4948 270.482 98.0844L270.503 86.7171C270.503 86.3068 270.791 86.134 271.158 86.3428Z" fill="black"/>
<path d="M274.642 83.6575C275.009 83.8663 275.297 84.3774 275.297 84.7878L275.261 103.556C275.261 103.966 274.966 104.132 274.599 103.923C274.239 103.714 273.951 103.21 273.951 102.8L273.987 84.0319C273.994 83.6215 274.282 83.4559 274.642 83.6575Z" fill="black"/>
<path d="M278.118 88.2072C278.478 88.416 278.766 88.9127 278.766 89.3303L278.744 104.096C278.744 104.506 278.449 104.679 278.089 104.47C277.729 104.261 277.442 103.757 277.442 103.347L277.463 88.5816C277.463 88.1641 277.758 87.9985 278.118 88.2072Z" fill="black"/>
<path d="M281.609 91.9364C281.969 92.1451 282.256 92.6491 282.256 93.0594L282.228 103.872C282.228 104.283 281.933 104.448 281.573 104.247C281.206 104.038 280.925 103.534 280.925 103.124L280.954 92.3107C280.954 91.8932 281.242 91.7204 281.609 91.9364Z" fill="black"/>
<path d="M285.078 96.4287C285.445 96.6374 285.726 97.1414 285.726 97.5589L285.704 104.182C285.704 104.592 285.416 104.765 285.049 104.556C284.689 104.348 284.401 103.844 284.401 103.433L284.423 96.8102C284.423 96.3927 284.718 96.2199 285.078 96.4287Z" fill="black"/>
<path d="M288.561 94.1608C288.921 94.3696 289.209 94.8735 289.209 95.2839L289.173 108.681C289.173 109.092 288.878 109.257 288.518 109.056C288.151 108.847 287.87 108.343 287.87 107.933L287.906 94.5352C287.914 94.1177 288.201 93.9449 288.561 94.1608Z" fill="black"/>
<path d="M292.045 93.7074C292.412 93.9162 292.7 94.4273 292.7 94.8377L292.642 113.951C292.642 114.369 292.347 114.527 291.98 114.318C291.62 114.109 291.332 113.613 291.332 113.195L291.39 94.0818C291.397 93.6714 291.685 93.4986 292.045 93.7074Z" fill="black"/>
<path d="M295.521 98.1779C295.881 98.3867 296.169 98.8906 296.169 99.301L296.133 112.698C296.133 113.109 295.838 113.274 295.478 113.073C295.118 112.864 294.83 112.36 294.83 111.95L294.866 98.5523C294.866 98.1348 295.161 97.9692 295.521 98.1779Z" fill="black"/>
<path d="M298.99 103.635C299.35 103.844 299.638 104.347 299.638 104.758L299.616 113.102C299.616 113.512 299.321 113.677 298.961 113.476C298.594 113.267 298.306 112.756 298.306 112.346L298.328 104.002C298.335 103.592 298.63 103.426 298.99 103.635Z" fill="black"/>
<path d="M302.481 103.498C302.848 103.707 303.129 104.211 303.129 104.621L303.093 116.708C303.093 117.119 302.805 117.291 302.438 117.083C302.078 116.874 301.79 116.37 301.79 115.96L301.826 103.872C301.826 103.462 302.121 103.289 302.481 103.498Z" fill="black"/>
<path d="M309.433 107.89C309.801 108.098 310.081 108.595 310.081 109.013L310.052 119.466C310.052 119.876 309.765 120.049 309.398 119.84C309.038 119.631 308.75 119.127 308.75 118.717L308.779 108.264C308.779 107.846 309.074 107.688 309.433 107.89Z" fill="black"/>
<path d="M305.964 100.582C306.324 100.791 306.612 101.295 306.612 101.713L306.562 122.18C306.562 122.59 306.267 122.755 305.907 122.554C305.54 122.345 305.259 121.841 305.259 121.431L305.309 100.964C305.309 100.539 305.597 100.374 305.964 100.582Z" fill="black"/>
<path d="M312.91 111.669C313.27 111.878 313.558 112.382 313.558 112.792L313.536 119.919C313.536 120.329 313.241 120.502 312.881 120.293C312.521 120.085 312.233 119.581 312.233 119.17L312.255 112.043C312.255 111.633 312.55 111.46 312.91 111.669Z" fill="black"/>
</g>
</g>
<defs>
<clipPath id="clip0_3_5628">
<rect width="339" height="313" fill="white" transform="translate(0 0.227783)"/>
</clipPath>
</defs>
</svg>
