<svg width="214" height="64" viewBox="0 0 214 64" fill="none" xmlns="http://www.w3.org/2000/svg">
<g filter="url(#filter0_d_3_5511)">
<rect x="4.44885" y="4" width="205" height="56" rx="6" fill="white"/>
<rect x="4.94885" y="4.5" width="204" height="55" rx="5.5" stroke="white"/>
<path fill-rule="evenodd" clip-rule="evenodd" d="M26.0486 26.0333C25.1004 25.3222 23.7967 25.3222 22.8486 26.0333L18.2669 29.4696C17.5327 30.0203 17.1332 30.9098 17.2094 31.8244L17.6314 36.8881C17.7466 38.2702 18.902 39.3333 20.2889 39.3333H28.6083C29.9952 39.3333 31.1506 38.2702 31.2658 36.8881L31.6878 31.8244C31.764 30.9098 31.3645 30.0203 30.6303 29.4696L26.0486 26.0333ZM23.6486 27.1C24.1227 26.7444 24.7745 26.7444 25.2486 27.1L29.8303 30.5363C30.1974 30.8116 30.3971 31.2564 30.359 31.7137L29.9371 36.7774C29.8795 37.4684 29.3018 38 28.6083 38H26.5065L26.6412 36.3829C26.7481 35.1002 25.7358 34 24.4486 34C23.1614 34 22.1491 35.1002 22.256 36.3829L22.3907 38H20.2889C19.5954 38 19.0177 37.4684 18.9601 36.7774L18.5382 31.7137C18.5 31.2564 18.6998 30.8116 19.0669 30.5363L23.6486 27.1ZM25.3125 36.2722L25.1685 38H23.7287L23.5847 36.2722C23.5426 35.7668 23.9414 35.3333 24.4486 35.3333C24.9558 35.3333 25.3546 35.7668 25.3125 36.2722Z" fill="#667185"/>
<path d="M42.3938 23.0455H45.5898L51.1467 36.6136H51.3512L56.908 23.0455H60.104V40.5H57.5984V27.8693H57.4364L52.2887 40.4744H50.2092L45.0614 27.8608H44.8995V40.5H42.3938V23.0455ZM67.538 40.7898C66.7084 40.7898 65.9584 40.6364 65.288 40.3295C64.6175 40.017 64.0863 39.5653 63.6942 38.9744C63.3079 38.3835 63.1147 37.6591 63.1147 36.8011C63.1147 36.0625 63.2567 35.4545 63.5408 34.9773C63.8249 34.5 64.2084 34.1222 64.6914 33.8438C65.1743 33.5653 65.7141 33.3551 66.3107 33.2131C66.9073 33.071 67.5153 32.9631 68.1346 32.8892C68.9187 32.7983 69.555 32.7244 70.0437 32.6676C70.5323 32.6051 70.8874 32.5057 71.109 32.3693C71.3306 32.233 71.4414 32.0114 71.4414 31.7045V31.6449C71.4414 30.9006 71.2312 30.3239 70.8107 29.9148C70.3959 29.5057 69.7766 29.3011 68.9528 29.3011C68.0948 29.3011 67.4187 29.4915 66.9244 29.8722C66.4357 30.2472 66.0976 30.6648 65.9101 31.125L63.5153 30.5795C63.7993 29.7841 64.2141 29.142 64.7596 28.6534C65.3107 28.1591 65.9442 27.8011 66.6601 27.5795C67.3761 27.3523 68.1289 27.2386 68.9187 27.2386C69.4414 27.2386 69.9954 27.3011 70.5806 27.4261C71.1715 27.5455 71.7226 27.767 72.234 28.0909C72.7511 28.4148 73.1743 28.8778 73.5039 29.4801C73.8334 30.0767 73.9982 30.8523 73.9982 31.8068V40.5H71.5096V38.7102H71.4073C71.2425 39.0398 70.9954 39.3636 70.6658 39.6818C70.3363 40 69.913 40.2642 69.3959 40.4744C68.8789 40.6847 68.2596 40.7898 67.538 40.7898ZM68.092 38.7443C68.7965 38.7443 69.3988 38.6051 69.8988 38.3267C70.4045 38.0483 70.788 37.6847 71.0494 37.2358C71.3164 36.7812 71.4499 36.2955 71.4499 35.7784V34.0909C71.359 34.1818 71.1829 34.267 70.9215 34.3466C70.6658 34.4205 70.3732 34.4858 70.0437 34.5426C69.7141 34.5937 69.3931 34.642 69.0806 34.6875C68.7681 34.7273 68.5067 34.7614 68.2965 34.7898C67.8022 34.8523 67.3505 34.9574 66.9414 35.1051C66.538 35.2528 66.2141 35.4659 65.9698 35.7443C65.7312 36.017 65.6118 36.3807 65.6118 36.8352C65.6118 37.4659 65.8448 37.9432 66.3107 38.267C66.7766 38.5852 67.3704 38.7443 68.092 38.7443ZM77.3924 40.5V27.4091H79.9407V40.5H77.3924ZM78.6793 25.3892C78.2361 25.3892 77.8555 25.2415 77.5373 24.946C77.2248 24.6449 77.0685 24.2869 77.0685 23.8722C77.0685 23.4517 77.2248 23.0937 77.5373 22.7983C77.8555 22.4972 78.2361 22.3466 78.6793 22.3466C79.1225 22.3466 79.5003 22.4972 79.8128 22.7983C80.131 23.0937 80.2901 23.4517 80.2901 23.8722C80.2901 24.2869 80.131 24.6449 79.8128 24.946C79.5003 25.2415 79.1225 25.3892 78.6793 25.3892ZM85.9172 23.0455V40.5H83.369V23.0455H85.9172ZM91.8938 23.0455V40.5H89.3455V23.0455H91.8938ZM95.3221 40.5V27.4091H97.8704V40.5H95.3221ZM96.609 25.3892C96.1658 25.3892 95.7851 25.2415 95.467 24.946C95.1545 24.6449 94.9982 24.2869 94.9982 23.8722C94.9982 23.4517 95.1545 23.0937 95.467 22.7983C95.7851 22.4972 96.1658 22.3466 96.609 22.3466C97.0522 22.3466 97.43 22.4972 97.7425 22.7983C98.0607 23.0937 98.2198 23.4517 98.2198 23.8722C98.2198 24.2869 98.0607 24.6449 97.7425 24.946C97.43 25.2415 97.0522 25.3892 96.609 25.3892ZM103.847 32.7273V40.5H101.299V27.4091H103.745V29.5398H103.907C104.208 28.8466 104.679 28.2898 105.321 27.8693C105.969 27.4489 106.784 27.2386 107.767 27.2386C108.659 27.2386 109.441 27.4261 110.111 27.8011C110.782 28.1705 111.301 28.7216 111.671 29.4545C112.04 30.1875 112.225 31.0937 112.225 32.1733V40.5H109.676V32.4801C109.676 31.5312 109.429 30.7898 108.935 30.2557C108.441 29.7159 107.762 29.446 106.898 29.446C106.307 29.446 105.782 29.5739 105.321 29.8295C104.867 30.0852 104.506 30.4602 104.239 30.9545C103.978 31.4432 103.847 32.0341 103.847 32.7273ZM121.131 45.6818C120.091 45.6818 119.196 45.5455 118.446 45.2727C117.702 45 117.094 44.6392 116.623 44.1903C116.151 43.7415 115.799 43.25 115.566 42.7159L117.756 41.8125C117.909 42.0625 118.114 42.3267 118.37 42.6051C118.631 42.8892 118.983 43.1307 119.426 43.3295C119.875 43.5284 120.452 43.6278 121.157 43.6278C122.123 43.6278 122.921 43.392 123.551 42.9205C124.182 42.4545 124.498 41.7102 124.498 40.6875V38.1136H124.336C124.182 38.392 123.961 38.7017 123.671 39.0426C123.387 39.3835 122.995 39.679 122.495 39.929C121.995 40.179 121.344 40.304 120.543 40.304C119.509 40.304 118.577 40.0625 117.748 39.5795C116.924 39.0909 116.27 38.3722 115.787 37.4233C115.31 36.4687 115.071 35.2955 115.071 33.9034C115.071 32.5114 115.307 31.3182 115.779 30.3239C116.256 29.3295 116.909 28.5682 117.739 28.0398C118.569 27.5057 119.509 27.2386 120.56 27.2386C121.373 27.2386 122.029 27.375 122.529 27.6477C123.029 27.9148 123.418 28.2273 123.696 28.5852C123.98 28.9432 124.199 29.2585 124.353 29.5312H124.54V27.4091H127.037V40.7898C127.037 41.9148 126.776 42.8381 126.253 43.5597C125.73 44.2813 125.023 44.8153 124.131 45.1619C123.245 45.5085 122.245 45.6818 121.131 45.6818ZM121.105 38.1903C121.838 38.1903 122.458 38.0199 122.963 37.679C123.475 37.3324 123.861 36.8381 124.123 36.196C124.39 35.5483 124.523 34.7727 124.523 33.8693C124.523 32.9886 124.392 32.2131 124.131 31.5426C123.87 30.8722 123.486 30.3494 122.98 29.9744C122.475 29.5937 121.85 29.4034 121.105 29.4034C120.338 29.4034 119.699 29.6023 119.188 30C118.676 30.392 118.29 30.9261 118.029 31.6023C117.773 32.2784 117.645 33.0341 117.645 33.8693C117.645 34.7273 117.776 35.4801 118.037 36.1278C118.299 36.7756 118.685 37.2812 119.196 37.6449C119.713 38.0085 120.35 38.1903 121.105 38.1903ZM145.157 28.7216H142.498C142.395 28.1534 142.205 27.6534 141.926 27.2216C141.648 26.7898 141.307 26.4233 140.904 26.1222C140.5 25.821 140.049 25.5937 139.549 25.4403C139.054 25.2869 138.529 25.2102 137.972 25.2102C136.966 25.2102 136.066 25.4631 135.27 25.9688C134.48 26.4744 133.855 27.2159 133.395 28.1932C132.941 29.1705 132.713 30.3636 132.713 31.7727C132.713 33.1932 132.941 34.392 133.395 35.3693C133.855 36.3466 134.483 37.0852 135.279 37.5852C136.074 38.0852 136.969 38.3352 137.963 38.3352C138.515 38.3352 139.037 38.2614 139.532 38.1136C140.032 37.9602 140.483 37.7358 140.887 37.4403C141.29 37.1449 141.631 36.7841 141.909 36.358C142.194 35.9261 142.39 35.4318 142.498 34.875L145.157 34.8835C145.015 35.7415 144.739 36.5312 144.33 37.2528C143.926 37.9688 143.407 38.5881 142.77 39.1108C142.14 39.6278 141.418 40.0284 140.605 40.3125C139.793 40.5966 138.907 40.7386 137.946 40.7386C136.435 40.7386 135.088 40.3807 133.907 39.6648C132.725 38.9432 131.793 37.9119 131.111 36.571C130.435 35.2301 130.097 33.6307 130.097 31.7727C130.097 29.9091 130.438 28.3097 131.12 26.9744C131.801 25.6335 132.733 24.6051 133.915 23.8892C135.097 23.1676 136.441 22.8068 137.946 22.8068C138.873 22.8068 139.736 22.9403 140.537 23.2074C141.344 23.4687 142.069 23.8551 142.711 24.3665C143.353 24.8722 143.884 25.4915 144.304 26.2244C144.725 26.9517 145.009 27.7841 145.157 28.7216ZM150.652 32.7273V40.5H148.103V23.0455H150.618V29.5398H150.779C151.086 28.8352 151.555 28.2756 152.186 27.8608C152.816 27.446 153.64 27.2386 154.657 27.2386C155.555 27.2386 156.339 27.4233 157.01 27.7926C157.686 28.1619 158.208 28.7131 158.578 29.446C158.953 30.1733 159.14 31.0824 159.14 32.1733V40.5H156.592V32.4801C156.592 31.5199 156.345 30.7756 155.85 30.2472C155.356 29.7131 154.669 29.446 153.788 29.446C153.186 29.446 152.646 29.5739 152.169 29.8295C151.697 30.0852 151.325 30.4602 151.052 30.9545C150.785 31.4432 150.652 32.0341 150.652 32.7273ZM166.35 40.7898C165.521 40.7898 164.771 40.6364 164.1 40.3295C163.43 40.017 162.899 39.5653 162.507 38.9744C162.12 38.3835 161.927 37.6591 161.927 36.8011C161.927 36.0625 162.069 35.4545 162.353 34.9773C162.637 34.5 163.021 34.1222 163.504 33.8438C163.987 33.5653 164.527 33.3551 165.123 33.2131C165.72 33.071 166.328 32.9631 166.947 32.8892C167.731 32.7983 168.368 32.7244 168.856 32.6676C169.345 32.6051 169.7 32.5057 169.922 32.3693C170.143 32.233 170.254 32.0114 170.254 31.7045V31.6449C170.254 30.9006 170.044 30.3239 169.623 29.9148C169.208 29.5057 168.589 29.3011 167.765 29.3011C166.907 29.3011 166.231 29.4915 165.737 29.8722C165.248 30.2472 164.91 30.6648 164.723 31.125L162.328 30.5795C162.612 29.7841 163.027 29.142 163.572 28.6534C164.123 28.1591 164.757 27.8011 165.473 27.5795C166.189 27.3523 166.941 27.2386 167.731 27.2386C168.254 27.2386 168.808 27.3011 169.393 27.4261C169.984 27.5455 170.535 27.767 171.047 28.0909C171.564 28.4148 171.987 28.8778 172.316 29.4801C172.646 30.0767 172.811 30.8523 172.811 31.8068V40.5H170.322V38.7102H170.22C170.055 39.0398 169.808 39.3636 169.478 39.6818C169.149 40 168.725 40.2642 168.208 40.4744C167.691 40.6847 167.072 40.7898 166.35 40.7898ZM166.904 38.7443C167.609 38.7443 168.211 38.6051 168.711 38.3267C169.217 38.0483 169.6 37.6847 169.862 37.2358C170.129 36.7812 170.262 36.2955 170.262 35.7784V34.0909C170.172 34.1818 169.995 34.267 169.734 34.3466C169.478 34.4205 169.186 34.4858 168.856 34.5426C168.527 34.5937 168.206 34.642 167.893 34.6875C167.581 34.7273 167.319 34.7614 167.109 34.7898C166.615 34.8523 166.163 34.9574 165.754 35.1051C165.35 35.2528 165.027 35.4659 164.782 35.7443C164.544 36.017 164.424 36.3807 164.424 36.8352C164.424 37.4659 164.657 37.9432 165.123 38.267C165.589 38.5852 166.183 38.7443 166.904 38.7443ZM182.316 27.4091V29.4545H175.165V27.4091H182.316ZM177.083 24.2727H179.631V36.6562C179.631 37.1506 179.705 37.5227 179.853 37.7727C180 38.017 180.191 38.1847 180.424 38.2756C180.662 38.3608 180.921 38.4034 181.199 38.4034C181.404 38.4034 181.583 38.3892 181.736 38.3608C181.89 38.3324 182.009 38.3097 182.094 38.2926L182.554 40.3977C182.407 40.4545 182.196 40.5114 181.924 40.5682C181.651 40.6307 181.31 40.6648 180.901 40.6705C180.23 40.6818 179.605 40.5625 179.026 40.3125C178.446 40.0625 177.978 39.6761 177.62 39.1534C177.262 38.6307 177.083 37.9744 177.083 37.1847V24.2727Z" fill="#246BEB"/>
</g>
<defs>
<filter id="filter0_d_3_5511" x="0.448853" y="0" width="213" height="64" filterUnits="userSpaceOnUse" color-interpolation-filters="sRGB">
<feFlood flood-opacity="0" result="BackgroundImageFix"/>
<feColorMatrix in="SourceAlpha" type="matrix" values="0 0 0 0 0 0 0 0 0 0 0 0 0 0 0 0 0 0 127 0" result="hardAlpha"/>
<feOffset/>
<feGaussianBlur stdDeviation="2"/>
<feComposite in2="hardAlpha" operator="out"/>
<feColorMatrix type="matrix" values="0 0 0 0 0 0 0 0 0 0 0 0 0 0 0 0 0 0 0.04 0"/>
<feBlend mode="normal" in2="BackgroundImageFix" result="effect1_dropShadow_3_5511"/>
<feBlend mode="normal" in="SourceGraphic" in2="effect1_dropShadow_3_5511" result="shape"/>
</filter>
</defs>
</svg>
